M48
; DRILL file {KiCad 9.0.6} date 2025-11-10T19:23:00+0100
; FORMAT={-:-/ absolute / inch / decimal}
; #@! TF.CreationDate,2025-11-10T19:23:00+01:00
; #@! TF.GenerationSoftware,Kicad,Pcbnew,9.0.6
; #@! TF.FileFunction,Plated,1,4,PTH
FMAT,2
INCH
; #@! TA.AperFunction,Plated,PTH,ViaDrill
T1C0.0079
; #@! TA.AperFunction,Plated,PTH,ViaDrill
T2C0.0157
; #@! TA.AperFunction,Plated,PTH,ComponentDrill
T3C0.0197
; #@! TA.AperFunction,Plated,PTH,ViaDrill
T4C0.0315
; #@! TA.AperFunction,Plated,PTH,ComponentDrill
T5C0.0315
; #@! TA.AperFunction,Plated,PTH,ComponentDrill
T6C0.0354
; #@! TA.AperFunction,Plated,PTH,ComponentDrill
T7C0.0390
; #@! TA.AperFunction,Plated,PTH,ComponentDrill
T8C0.0394
; #@! TA.AperFunction,Plated,PTH,ComponentDrill
T9C0.0433
; #@! TA.AperFunction,Plated,PTH,ComponentDrill
T10C0.0472
; #@! TA.AperFunction,Plated,PTH,ComponentDrill
T11C0.0512
; #@! TA.AperFunction,Plated,PTH,ViaDrill
T12C0.0591
; #@! TA.AperFunction,Plated,PTH,ComponentDrill
T13C0.0630
; #@! TA.AperFunction,Plated,PTH,ComponentDrill
T14C0.0787
%
G90
G05
T1
X2.1339Y-8.2362
X2.1339Y-8.6132
X2.1496Y-8.5374
X2.1614Y-7.7283
X2.1614Y-8.9173
X2.185Y-8.01
X2.185Y-8.3116
X2.1896Y-7.4069
X2.372Y-7.3327
X2.3799Y-7.0443
X2.4252Y-9.2835
X2.4311Y-7.6181
X2.4311Y-7.9134
X2.4311Y-8.2185
X2.4311Y-8.5236
X2.4311Y-8.8189
X2.4311Y-9.1339
X2.4488Y-7.0344
X2.5394Y-7.6181
X2.5394Y-7.9134
X2.5394Y-8.2185
X2.5394Y-8.5236
X2.5394Y-8.8189
X2.5394Y-9.1339
X2.6083Y-7.7362
X2.6181Y-8.4843
X2.6181Y-8.7402
X2.628Y-8.248
X2.6378Y-8.0217
X2.6673Y-7.5886
X2.7067Y-7.3819
X2.7255Y-9.7815
X2.7559Y-7.5945
X2.7559Y-8.3898
X2.7854Y-7.7953
X2.7953Y-8.3898
X2.815Y-7.7559
X2.8278Y-9.2283
X2.8622Y-8.6063
X2.8642Y-7.8346
X2.8839Y-8.3858
X2.8937Y-8.0118
X2.9331Y-7.7559
X2.9626Y-8.2972
X2.975Y-7.6451
X3.0118Y-7.9016
X3.0413Y-8.1988
X3.0628Y-9.2244
X3.0807Y-8.4744
X3.122Y-7.8268
X3.1299Y-8.1693
X3.1791Y-8.2776
X3.1791Y-8.4449
X3.189Y-9.7244
X3.2283Y-8.1398
X3.2776Y-8.2579
X3.2776Y-8.4252
X3.2835Y-7.7559
X3.316Y-9.7815
X3.3268Y-8.1102
X3.376Y-8.2283
X3.376Y-8.4055
X3.4252Y-8.0807
X3.4281Y-9.2244
X3.4744Y-8.2087
X3.4744Y-8.3858
X3.5236Y-8.0512
X3.5728Y-8.3632
X3.6533Y-9.2244
X3.7697Y-8.0709
X3.8071Y-9.6772
X3.9066Y-9.7815
X3.9961Y-7.9606
X4.0285Y-9.2254
X4.0512Y-7.6451
X4.2047Y-9.3543
X4.3701Y-9.7244
X4.378Y-8.0906
X4.5079Y-8.1594
X4.6161Y-9.2283
X4.622Y-5.7598
X4.6822Y-9.7815
X4.7185Y-5.8051
X4.7283Y-8.6929
X4.874Y-5.9094
X5.0215Y-9.2205
X5.1417Y-7.7638
X5.1417Y-8.0551
X5.1457Y-9.7244
X5.1732Y-3.7323
X5.1732Y-4.1417
X5.1732Y-4.5551
X5.2441Y-6.8819
X5.2767Y-9.7815
X5.2913Y-7.3386
X5.3228Y-6.0266
X5.3228Y-6.1024
X5.3307Y-6.5896
X5.3307Y-6.6654
X5.3465Y-7.0669
X5.3543Y-8.0551
X5.3701Y-7.3031
X5.5354Y-5.3346
X5.5827Y-9.3622
X5.5984Y-3.1969
X5.6978Y-8.1496
X5.748Y-9.7244
X5.8031Y-3.9882
X5.8672Y-9.7815
X5.878Y-3.9783
X5.9173Y-8.689
X5.9291Y-8.1614
X5.9449Y-4.498
X5.9803Y-9.2283
X6.0315Y-4.4055
X6.0433Y-4.502
X6.122Y-7.9232
X6.1713Y-7.9528
X6.2026Y-9.2323
X6.2894Y-4.1673
X6.3346Y-7.1801
X6.3346Y-7.2559
X6.3346Y-9.7244
X6.3425Y-6.0266
X6.3425Y-6.1024
X6.3425Y-6.5896
X6.3425Y-6.6654
X6.3484Y-7.5787
X6.3878Y-7.8248
X6.4272Y-7.8642
X6.4578Y-9.7815
X6.5433Y-9.2087
X6.7441Y-9.3701
X6.7929Y-7.8484
X6.8307Y-8.0276
X6.8819Y-8.1654
X6.9016Y-9.7244
X6.9193Y-3.8189
X6.9193Y-4.4055
X6.9587Y-3.7362
X6.9587Y-4.1732
X7.0079Y-3.6535
X7.0079Y-3.985
X7.0177Y-8.0413
X7.0405Y-9.7815
X7.185Y-8.6315
X7.2087Y-9.2815
X7.3425Y-9.3504
X7.3561Y-8.3583
X7.3561Y-8.4341
X7.3622Y-8.8929
X7.3622Y-8.9687
X7.364Y-7.1654
X7.364Y-7.2411
X7.364Y-7.748
X7.364Y-7.8238
X7.3858Y-6.0748
X7.3937Y-6.622
X7.4291Y-6.7047
X7.4449Y-6.1654
X7.5039Y-9.7244
X7.631Y-9.7815
X7.7913Y-9.2815
X7.9094Y-9.2815
X8.0984Y-9.7244
X8.2216Y-9.7815
X8.3819Y-9.2815
X8.3898Y-7.122
X8.3937Y-7.7677
X8.3937Y-8.3661
X8.3976Y-8.9449
X8.437Y-8.4291
X8.437Y-9.0079
X8.4409Y-7.2756
X8.4528Y-7.8504
X8.5157Y-9.3386
X8.6929Y-9.7244
X8.816Y-9.7815
X8.8819Y-9.2283
X9.0551Y-9.3425
X9.2953Y-9.7244
X9.3701Y-9.2008
T2
X1.8937Y-7.6929
X2.0866Y-7.6732
X2.1339Y-7.937
X2.1417Y-8.8386
X2.5118Y-5.2795
X2.7835Y-7.9803
X2.7953Y-8.3228
X2.8159Y-7.4321
X2.8622Y-7.5472
X2.8701Y-7.7087
X2.9331Y-8.0118
X3.3622Y-4.872
X3.3858Y-7.8051
X3.9567Y-9.0354
X3.9567Y-9.124
X4.0059Y-9.0846
X4.0059Y-9.1634
X4.0945Y-9.6161
X4.1043Y-9.3012
X4.1142Y-3.2283
X4.1142Y-3.3268
X4.1142Y-3.5236
X4.1166Y-3.4252
X4.2028Y-9.2224
X4.7244Y-9.252
X4.9311Y-9.3209
X5.2756Y-6.8031
X5.5276Y-9.2835
X5.9488Y-7.1142
X6.003Y-6.8219
X6.0354Y-6.6654
X6.122Y-7.628
X6.1781Y-7.3494
X6.1909Y-7.7264
X6.2874Y-7.1339
X7.2552Y-9.5571
X7.2795Y-8.8465
X7.3031Y-7.3819
X7.374Y-7.9055
X7.3898Y-7.3406
X7.4081Y-7.5361
X7.4173Y-9.0551
X7.563Y-7.3228
X8.0236Y-7.3819
X8.2087Y-7.4705
X8.3858Y-9.1043
X8.3858Y-9.1831
X8.4646Y-9.2815
X8.4744Y-9.1437
T3
X3.7831Y-8.311
X4.1106Y-8.311
X4.8976Y-8.311
X5.2449Y-8.311
X6.1024Y-8.311
X6.2835Y-8.311
T4
X6.4094Y-6.3788
X6.4843Y-4.05
X6.6978Y-7.1149
X6.7077Y-5.966
X6.7077Y-6.5264
X6.7512Y-7.5984
X7.4291Y-6.372
X7.7265Y-8.297
X7.729Y-5.9789
X7.7311Y-7.1055
X7.7321Y-7.6865
X7.7323Y-6.5212
X8.7256Y-7.0842
X8.7256Y-7.6652
X8.7256Y-8.2462
X9.3848Y-6.1762
X9.5472Y-6.1024
T5
X2.2419Y-9.8311
X2.2419Y-9.9311
X2.2419Y-10.0311
X2.5372Y-9.3882
X2.5372Y-9.4882
X2.5372Y-9.5882
X2.5419Y-9.8311
X2.5419Y-9.9311
X2.5419Y-10.0311
X2.8325Y-9.8311
X2.8325Y-9.9311
X2.8325Y-10.0311
X2.8372Y-9.3882
X2.8372Y-9.4882
X2.8372Y-9.5882
X3.1278Y-9.3882
X3.1278Y-9.4882
X3.1278Y-9.5882
X3.1325Y-9.8311
X3.1325Y-9.9311
X3.1325Y-10.0311
X3.1835Y-7.6451
X3.1835Y-7.9451
X3.2835Y-7.6451
X3.2835Y-7.9451
X3.3835Y-7.6451
X3.3835Y-7.9451
X3.423Y-9.8311
X3.423Y-9.9311
X3.423Y-10.0311
X3.4278Y-9.3882
X3.4278Y-9.4882
X3.4278Y-9.5882
X3.4835Y-7.6451
X3.4835Y-7.9451
X3.5835Y-7.6451
X3.5835Y-7.9451
X3.6835Y-7.6451
X3.6835Y-7.9451
X3.7183Y-9.3882
X3.7183Y-9.4882
X3.7183Y-9.5882
X3.723Y-9.8311
X3.723Y-9.9311
X3.723Y-10.0311
X3.7835Y-7.6451
X3.7835Y-7.9451
X3.8835Y-7.6451
X3.8835Y-7.9451
X4.0136Y-9.8311
X4.0136Y-9.9311
X4.0136Y-10.0311
X4.0183Y-9.3882
X4.0183Y-9.4882
X4.0183Y-9.5882
X4.2866Y-7.6451
X4.2866Y-7.9451
X4.3089Y-9.3882
X4.3089Y-9.4882
X4.3089Y-9.5882
X4.3136Y-9.8311
X4.3136Y-9.9311
X4.3136Y-10.0311
X4.3187Y-8.2622
X4.3187Y-8.3622
X4.3187Y-8.4622
X4.3187Y-8.5622
X4.3187Y-8.6622
X4.3187Y-8.7622
X4.3187Y-8.8622
X4.3187Y-8.9622
X4.3866Y-7.6451
X4.3866Y-7.9451
X4.4866Y-7.6451
X4.4866Y-7.9451
X4.5866Y-7.6451
X4.5866Y-7.9451
X4.6089Y-9.3882
X4.6089Y-9.4882
X4.6089Y-9.5882
X4.6187Y-8.2622
X4.6187Y-8.3622
X4.6187Y-8.4622
X4.6187Y-8.5622
X4.6187Y-8.6622
X4.6187Y-8.7622
X4.6187Y-8.8622
X4.6187Y-8.9622
X4.6866Y-7.6451
X4.6866Y-7.9451
X4.7866Y-7.6451
X4.7866Y-7.9451
X4.7911Y-9.8311
X4.7911Y-9.9311
X4.7911Y-10.0311
X4.8866Y-7.6451
X4.8866Y-7.9451
X4.9866Y-7.6451
X4.9866Y-7.9451
X5.0864Y-9.3882
X5.0864Y-9.4882
X5.0864Y-9.5882
X5.0911Y-9.8311
X5.0911Y-9.9311
X5.0911Y-10.0311
X5.3817Y-9.8311
X5.3817Y-9.9311
X5.3817Y-10.0311
X5.3864Y-9.3882
X5.3864Y-9.4882
X5.3864Y-9.5882
X5.3898Y-7.4585
X5.3898Y-7.7585
X5.4252Y-3.3268
X5.4252Y-3.5236
X5.4252Y-3.7323
X5.4252Y-3.9291
X5.4252Y-4.1417
X5.4252Y-4.3386
X5.4252Y-4.5591
X5.4252Y-4.7559
X5.4898Y-7.4585
X5.4898Y-7.7585
X5.5039Y-3.3268
X5.5039Y-3.5236
X5.5039Y-3.7323
X5.5039Y-3.9291
X5.5039Y-4.1417
X5.5039Y-4.3386
X5.5039Y-4.5591
X5.5039Y-4.7559
X5.5069Y-6.9657
X5.5069Y-7.0657
X5.5069Y-7.1657
X5.512Y-5.82
X5.512Y-5.92
X5.512Y-6.02
X5.5167Y-6.3788
X5.5167Y-6.4788
X5.5167Y-6.5788
X5.5182Y-8.2665
X5.5182Y-8.3665
X5.5182Y-8.4665
X5.5182Y-8.5665
X5.5182Y-8.6665
X5.5182Y-8.7665
X5.5182Y-8.8665
X5.5182Y-8.9665
X5.5827Y-3.3268
X5.5827Y-3.5236
X5.5827Y-3.7323
X5.5827Y-3.9291
X5.5827Y-4.1417
X5.5827Y-4.3386
X5.5827Y-4.5591
X5.5827Y-4.7559
X5.5898Y-7.4585
X5.5898Y-7.7585
X5.677Y-9.3882
X5.677Y-9.4882
X5.677Y-9.5882
X5.6817Y-9.8311
X5.6817Y-9.9311
X5.6817Y-10.0311
X5.6841Y-6.9649
X5.6841Y-7.2649
X5.6892Y-5.816
X5.6892Y-6.116
X5.6898Y-7.4585
X5.6898Y-7.7585
X5.6939Y-6.3764
X5.6939Y-6.6764
X5.7898Y-7.4585
X5.7898Y-7.7585
X5.8182Y-8.2665
X5.8182Y-8.3665
X5.8182Y-8.4665
X5.8182Y-8.5665
X5.8182Y-8.6665
X5.8182Y-8.7665
X5.8182Y-8.8665
X5.8182Y-8.9665
X5.8898Y-7.4585
X5.8898Y-7.7585
X5.9722Y-9.8311
X5.9722Y-9.9311
X5.9722Y-10.0311
X5.977Y-9.3882
X5.977Y-9.4882
X5.977Y-9.5882
X5.9898Y-7.4585
X5.9898Y-7.7585
X6.0898Y-7.4585
X6.0898Y-7.7585
X6.2675Y-9.3882
X6.2675Y-9.4882
X6.2675Y-9.5882
X6.2722Y-9.8311
X6.2722Y-9.9311
X6.2722Y-10.0311
X6.4512Y-7.4482
X6.4512Y-7.7482
X6.5207Y-6.9672
X6.5207Y-7.0672
X6.5207Y-7.1672
X6.5305Y-5.82
X6.5305Y-5.92
X6.5305Y-6.02
X6.5305Y-6.3788
X6.5305Y-6.4788
X6.5305Y-6.5788
X6.5512Y-7.4482
X6.5512Y-7.7482
X6.5628Y-9.8409
X6.5628Y-9.9409
X6.5628Y-10.0409
X6.5675Y-9.3882
X6.5675Y-9.4882
X6.5675Y-9.5882
X6.6512Y-7.4482
X6.6512Y-7.7482
X6.6978Y-6.9649
X6.6978Y-7.2649
X6.7077Y-5.816
X6.7077Y-6.116
X6.7077Y-6.3764
X6.7077Y-6.6764
X6.7177Y-8.2665
X6.7177Y-8.3665
X6.7177Y-8.4665
X6.7177Y-8.5665
X6.7177Y-8.6665
X6.7177Y-8.7665
X6.7177Y-8.8665
X6.7177Y-8.9665
X6.7512Y-7.4482
X6.7512Y-7.7482
X6.8512Y-7.4482
X6.8512Y-7.7482
X6.8581Y-9.3882
X6.8581Y-9.4882
X6.8581Y-9.5882
X6.8628Y-9.8409
X6.8628Y-9.9409
X6.8628Y-10.0409
X6.9512Y-7.4482
X6.9512Y-7.7482
X7.0177Y-8.2665
X7.0177Y-8.3665
X7.0177Y-8.4665
X7.0177Y-8.5665
X7.0177Y-8.6665
X7.0177Y-8.7665
X7.0177Y-8.8665
X7.0177Y-8.9665
X7.0512Y-7.4482
X7.0512Y-7.7482
X7.1435Y-9.8409
X7.1435Y-9.9409
X7.1435Y-10.0409
X7.1512Y-7.4482
X7.1512Y-7.7482
X7.1581Y-9.3882
X7.1581Y-9.4882
X7.1581Y-9.5882
X7.4388Y-9.3882
X7.4388Y-9.4882
X7.4388Y-9.5882
X7.4435Y-9.8409
X7.4435Y-9.9409
X7.4435Y-10.0409
X7.5493Y-8.1478
X7.5493Y-8.2478
X7.5493Y-8.3478
X7.5508Y-6.372
X7.5508Y-6.472
X7.5508Y-6.572
X7.5518Y-5.8313
X7.5518Y-5.9313
X7.5518Y-6.0313
X7.5539Y-6.9563
X7.5539Y-7.0563
X7.5539Y-7.1563
X7.5539Y-8.6837
X7.5539Y-8.7837
X7.5539Y-8.8837
X7.5549Y-7.5373
X7.5549Y-7.6373
X7.5549Y-7.7373
X7.7265Y-8.147
X7.7265Y-8.447
X7.729Y-5.8289
X7.729Y-6.1289
X7.7311Y-6.9555
X7.7311Y-7.2555
X7.7311Y-8.6829
X7.7311Y-8.9829
X7.7321Y-7.5365
X7.7321Y-7.8365
X7.7323Y-6.3712
X7.7323Y-6.6712
X7.7341Y-9.8409
X7.7341Y-9.9409
X7.7341Y-10.0409
X7.7388Y-9.3882
X7.7388Y-9.4882
X7.7388Y-9.5882
X8.0293Y-9.3882
X8.0293Y-9.4882
X8.0293Y-9.5882
X8.0341Y-9.8409
X8.0341Y-9.9409
X8.0341Y-10.0409
X8.3246Y-9.8409
X8.3246Y-9.9409
X8.3246Y-10.0409
X8.3293Y-9.3882
X8.3293Y-9.4882
X8.3293Y-9.5882
X8.5484Y-6.935
X8.5484Y-7.035
X8.5484Y-7.135
X8.5484Y-7.516
X8.5484Y-7.616
X8.5484Y-7.716
X8.5484Y-8.097
X8.5484Y-8.197
X8.5484Y-8.297
X8.5484Y-8.678
X8.5484Y-8.778
X8.5484Y-8.878
X8.6199Y-9.3882
X8.6199Y-9.4882
X8.6199Y-9.5882
X8.6246Y-9.8409
X8.6246Y-9.9409
X8.6246Y-10.0409
X8.7256Y-6.9342
X8.7256Y-7.2342
X8.7256Y-7.5152
X8.7256Y-7.8152
X8.7256Y-8.0962
X8.7256Y-8.3962
X8.7256Y-8.6772
X8.7256Y-8.9772
X8.9199Y-9.3882
X8.9199Y-9.4882
X8.9199Y-9.5882
X8.9199Y-9.8409
X8.9199Y-9.9409
X8.9199Y-10.0409
X9.139Y-9.3882
X9.139Y-9.4882
X9.139Y-9.5882
X9.2199Y-9.8409
X9.2199Y-9.9409
X9.2199Y-10.0409
X9.439Y-9.3882
X9.439Y-9.4882
X9.439Y-9.5882
T6
X1.8898Y-4.7343
X1.8898Y-5.2343
X3.1791Y-4.7756
X3.1791Y-5.2756
X3.5886Y-4.0059
X4.0886Y-4.0059
T7
X5.815Y-7.0289
X5.815Y-7.2289
X5.8205Y-5.8801
X5.8205Y-6.0801
X5.8295Y-6.4404
X5.8295Y-6.6404
X6.115Y-7.0289
X6.115Y-7.2289
X6.1205Y-5.8801
X6.1205Y-6.0801
X6.1295Y-6.4404
X6.1295Y-6.6404
X6.215Y-7.0289
X6.215Y-7.2289
X6.2205Y-5.8801
X6.2205Y-6.0801
X6.2295Y-6.4404
X6.2295Y-6.6404
X6.8362Y-7.0289
X6.8362Y-7.2289
X6.8378Y-5.8801
X6.8378Y-6.0801
X6.8386Y-6.4404
X6.8386Y-6.6404
X7.1362Y-7.0289
X7.1362Y-7.2289
X7.1378Y-5.8801
X7.1378Y-6.0801
X7.1386Y-6.4404
X7.1386Y-6.6404
X7.2362Y-7.0289
X7.2362Y-7.2289
X7.2378Y-5.8801
X7.2378Y-6.0801
X7.2386Y-6.4404
X7.2386Y-6.6404
X7.8583Y-5.893
X7.8583Y-6.093
X7.8583Y-8.2111
X7.8583Y-8.4111
X7.8598Y-7.6006
X7.8598Y-7.8006
X7.8638Y-8.747
X7.8638Y-8.947
X7.8677Y-7.0196
X7.8677Y-7.2196
X7.8693Y-6.4352
X7.8693Y-6.6352
X8.1583Y-5.893
X8.1583Y-6.093
X8.1583Y-8.2111
X8.1583Y-8.4111
X8.1598Y-7.6006
X8.1598Y-7.8006
X8.1638Y-8.747
X8.1638Y-8.947
X8.1677Y-7.0196
X8.1677Y-7.2196
X8.1693Y-6.4352
X8.1693Y-6.6352
X8.2583Y-5.893
X8.2583Y-6.093
X8.2583Y-8.2111
X8.2583Y-8.4111
X8.2598Y-7.6006
X8.2598Y-7.8006
X8.2638Y-8.747
X8.2638Y-8.947
X8.2677Y-7.0196
X8.2677Y-7.2196
X8.2693Y-6.4352
X8.2693Y-6.6352
X8.8543Y-7.5793
X8.8543Y-7.7793
X8.8559Y-6.9983
X8.8559Y-7.1983
X8.8622Y-8.1602
X8.8622Y-8.3602
X8.8622Y-8.7412
X8.8622Y-8.9412
X9.1543Y-7.5793
X9.1543Y-7.7793
X9.1559Y-6.9983
X9.1559Y-7.1983
X9.1622Y-8.1602
X9.1622Y-8.3602
X9.1622Y-8.7412
X9.1622Y-8.9412
X9.2543Y-7.5793
X9.2543Y-7.7793
X9.2559Y-6.9983
X9.2559Y-7.1983
X9.2622Y-8.1602
X9.2622Y-8.3602
X9.2622Y-8.7412
X9.2622Y-8.9412
T8
X1.7795Y-6.5846
X1.7795Y-6.7815
X1.7795Y-7.3425
X1.7795Y-7.5394
X1.7795Y-7.9319
X1.7795Y-8.365
X1.7795Y-8.798
X1.7795Y-9.2311
X1.7795Y-9.6642
X1.7795Y-10.0972
X1.9764Y-6.6831
X1.9764Y-7.4409
X1.9764Y-7.8346
X1.9764Y-8.2677
X1.9764Y-8.7008
X1.9764Y-9.1339
X1.9764Y-9.5669
X1.9764Y-10.0
X2.2933Y-10.2559
X2.3917Y-10.4528
X2.4902Y-10.2559
X2.5886Y-10.4528
X2.687Y-10.2559
X2.7854Y-10.4528
X2.8839Y-10.2559
X2.9823Y-10.4528
X3.0807Y-10.2559
X3.1791Y-10.4528
X3.2776Y-10.2559
X3.376Y-10.4528
X3.4744Y-10.2559
X3.5728Y-10.4528
X3.6713Y-10.2559
X3.7697Y-10.4528
X3.8681Y-10.2559
X3.9665Y-10.4528
X4.065Y-10.2559
X4.1634Y-10.4528
X4.2618Y-10.2559
X4.3602Y-10.4528
X4.4587Y-10.2559
X4.5571Y-10.4528
X4.8425Y-10.2559
X4.9409Y-10.4528
X5.0394Y-10.2559
X5.1378Y-10.4528
X5.2362Y-10.2559
X5.3167Y-5.0
X5.3346Y-10.4528
X5.4167Y-5.0
X5.4331Y-10.2559
X5.5167Y-5.0
X5.5315Y-10.4528
X5.6167Y-5.0
X5.6299Y-10.2559
X5.7167Y-5.0
X5.7283Y-10.4528
X5.8167Y-5.0
X5.8268Y-10.2559
X5.9252Y-10.4528
X6.0236Y-10.2559
X6.122Y-10.4528
X6.2205Y-10.2559
X6.3189Y-10.4528
X6.4173Y-10.2559
X6.5157Y-10.4528
X6.5929Y-3.4
X6.5929Y-3.5
X6.5929Y-3.6
X6.5929Y-3.7
X6.5929Y-3.8
X6.5929Y-3.9
X6.5929Y-4.0
X6.5929Y-4.1
X6.5929Y-4.2
X6.5929Y-4.3
X6.5929Y-4.4
X6.5929Y-4.5
X6.5929Y-4.6
X6.5929Y-4.7
X6.5929Y-4.8
X6.5929Y-4.9
X6.5929Y-5.0
X6.5929Y-5.1
X6.5929Y-5.2
X6.5929Y-5.3
X6.6142Y-10.2559
X6.6929Y-3.4
X6.6929Y-3.5
X6.6929Y-3.6
X6.6929Y-3.7
X6.6929Y-3.8
X6.6929Y-3.9
X6.6929Y-4.0
X6.6929Y-4.1
X6.6929Y-4.2
X6.6929Y-4.3
X6.6929Y-4.4
X6.6929Y-4.5
X6.6929Y-4.6
X6.6929Y-4.7
X6.6929Y-4.8
X6.6929Y-4.9
X6.6929Y-5.0
X6.6929Y-5.1
X6.6929Y-5.2
X6.6929Y-5.3
X6.7126Y-10.4528
X6.811Y-10.2559
X6.9094Y-10.4528
X7.0079Y-10.2559
X7.1063Y-10.4528
X7.3917Y-10.2559
X7.4902Y-10.4528
X7.5886Y-10.2559
X7.687Y-10.4528
X7.7854Y-10.2559
X7.8839Y-10.4528
X7.9823Y-10.2559
X8.0807Y-10.4528
X8.1791Y-10.2559
X8.2776Y-10.4528
X8.376Y-10.2559
X8.4744Y-10.4528
X8.5728Y-10.2559
X8.6713Y-10.4528
X8.7697Y-10.2559
X8.8681Y-10.4528
X8.9665Y-10.2559
X9.065Y-10.4528
X9.1634Y-10.2559
X9.2618Y-10.4528
X9.3602Y-10.2559
X9.4587Y-10.4528
X9.5571Y-10.2559
X9.6555Y-10.4528
X10.0787Y-6.8406
X10.0787Y-6.939
X10.0787Y-7.0374
X10.0787Y-7.1358
X10.0787Y-7.2343
X10.0787Y-7.3327
X10.0787Y-7.4311
X10.0787Y-7.5295
X10.0787Y-7.628
X10.0787Y-7.7264
X10.0787Y-7.8248
X10.0787Y-7.9232
X10.0787Y-8.0217
X10.0787Y-8.1201
X10.0787Y-8.2185
X10.0787Y-8.3169
X10.0787Y-8.6713
X10.0787Y-8.7697
X10.0787Y-8.8681
X10.0787Y-8.9665
X10.0787Y-9.065
X10.0787Y-9.1634
X10.0787Y-9.2618
X10.0787Y-9.3602
X10.0787Y-9.4587
X10.0787Y-9.5571
X10.0787Y-9.6555
X10.0787Y-9.7539
X10.0787Y-9.8524
X10.0787Y-9.9508
X10.0787Y-10.0492
X10.0787Y-10.1476
T9
X1.8445Y-5.8248
X1.9114Y-5.6791
X1.9783Y-5.8248
X2.0453Y-5.6791
X2.1122Y-5.8248
X3.116Y-5.8228
X3.1829Y-5.6772
X3.2498Y-5.8228
X3.3168Y-5.6772
X3.3837Y-5.8228
X4.0295Y-4.5748
X4.0965Y-4.4291
X4.1634Y-4.5748
X4.2303Y-4.4291
X4.2972Y-4.5748
X5.9449Y-4.1654
X5.9449Y-4.7362
X6.0433Y-4.1654
X6.1417Y-4.1654
X6.1417Y-4.7362
T10
X3.8504Y-8.5748
X4.0472Y-8.5748
X4.9718Y-8.5748
X5.1687Y-8.5748
T11
X2.6063Y-6.8189
X2.6063Y-7.0189
X2.8071Y-6.8189
X2.8071Y-7.0189
X3.0118Y-6.8197
X3.0118Y-7.0197
X3.6713Y-3.5138
X3.8681Y-3.5138
X6.5157Y-8.311
X6.5157Y-8.511
X9.5827Y-9.5638
X9.5827Y-9.7638
T12
X1.5157Y-5.9685
X1.5157Y-6.1614
X1.9291Y-6.3091
X2.2539Y-6.4862
X2.2835Y-6.7008
X2.4882Y-6.5354
X2.5689Y-6.3287
X3.1809Y-6.3169
X3.3327Y-4.3425
X3.5353Y-6.4449
X3.5433Y-6.7441
X3.8305Y-6.2283
X3.874Y-6.7402
X4.0256Y-5.0787
X4.7343Y-4.9508
T13
X2.2559Y-3.6654
X2.2559Y-3.815
X2.2559Y-4.2559
X2.2559Y-4.4055
X2.748Y-3.6654
X2.748Y-3.815
X2.748Y-4.2559
X2.748Y-4.4055
X9.1732Y-5.7717
X9.1732Y-5.9213
X9.1732Y-6.3622
X9.1732Y-6.5118
X9.6654Y-5.7717
X9.6654Y-5.9213
X9.6654Y-6.3622
X9.6654Y-6.5118
T14
X3.2677Y-8.6969
M30
