%TF.GenerationSoftware,KiCad,Pcbnew,9.0.6*%
%TF.CreationDate,2025-11-10T19:23:00+01:00*%
%TF.ProjectId,BGA_Steuerung_4layer,4247415f-5374-4657-9565-72756e675f34,rev?*%
%TF.SameCoordinates,Original*%
%TF.FileFunction,Soldermask,Top*%
%TF.FilePolarity,Negative*%
%FSLAX46Y46*%
G04 Gerber Fmt 4.6, Leading zero omitted, Abs format (unit mm)*
G04 Created by KiCad (PCBNEW 9.0.6) date 2025-11-10 19:23:00*
%MOMM*%
%LPD*%
G01*
G04 APERTURE LIST*
G04 Aperture macros list*
%AMRoundRect*
0 Rectangle with rounded corners*
0 $1 Rounding radius*
0 $2 $3 $4 $5 $6 $7 $8 $9 X,Y pos of 4 corners*
0 Add a 4 corners polygon primitive as box body*
4,1,4,$2,$3,$4,$5,$6,$7,$8,$9,$2,$3,0*
0 Add four circle primitives for the rounded corners*
1,1,$1+$1,$2,$3*
1,1,$1+$1,$4,$5*
1,1,$1+$1,$6,$7*
1,1,$1+$1,$8,$9*
0 Add four rect primitives between the rounded corners*
20,1,$1+$1,$2,$3,$4,$5,0*
20,1,$1+$1,$4,$5,$6,$7,0*
20,1,$1+$1,$6,$7,$8,$9,0*
20,1,$1+$1,$8,$9,$2,$3,0*%
G04 Aperture macros list end*
%ADD10C,1.500000*%
%ADD11RoundRect,0.200000X-0.200000X-0.275000X0.200000X-0.275000X0.200000X0.275000X-0.200000X0.275000X0*%
%ADD12R,1.500000X1.500000*%
%ADD13RoundRect,0.250000X-0.550000X-0.550000X0.550000X-0.550000X0.550000X0.550000X-0.550000X0.550000X0*%
%ADD14C,1.600000*%
%ADD15RoundRect,0.250001X-2.049999X-0.799999X2.049999X-0.799999X2.049999X0.799999X-2.049999X0.799999X0*%
%ADD16RoundRect,0.200000X0.200000X0.275000X-0.200000X0.275000X-0.200000X-0.275000X0.200000X-0.275000X0*%
%ADD17RoundRect,0.218750X-0.218750X-0.256250X0.218750X-0.256250X0.218750X0.256250X-0.218750X0.256250X0*%
%ADD18RoundRect,0.225000X0.250000X-0.225000X0.250000X0.225000X-0.250000X0.225000X-0.250000X-0.225000X0*%
%ADD19RoundRect,0.218750X0.218750X0.256250X-0.218750X0.256250X-0.218750X-0.256250X0.218750X-0.256250X0*%
%ADD20R,0.850000X0.850000*%
%ADD21RoundRect,0.200000X-0.275000X0.200000X-0.275000X-0.200000X0.275000X-0.200000X0.275000X0.200000X0*%
%ADD22RoundRect,0.200000X0.275000X-0.200000X0.275000X0.200000X-0.275000X0.200000X-0.275000X-0.200000X0*%
%ADD23RoundRect,0.225000X-0.250000X0.225000X-0.250000X-0.225000X0.250000X-0.225000X0.250000X0.225000X0*%
%ADD24RoundRect,0.250000X-0.450000X0.262500X-0.450000X-0.262500X0.450000X-0.262500X0.450000X0.262500X0*%
%ADD25RoundRect,0.250000X0.650000X-0.650000X0.650000X0.650000X-0.650000X0.650000X-0.650000X-0.650000X0*%
%ADD26C,1.800000*%
%ADD27RoundRect,0.650000X0.650000X-0.650000X0.650000X0.650000X-0.650000X0.650000X-0.650000X-0.650000X0*%
%ADD28C,2.600000*%
%ADD29RoundRect,0.250000X-0.550000X0.550000X-0.550000X-0.550000X0.550000X-0.550000X0.550000X0.550000X0*%
%ADD30RoundRect,0.125000X-0.537500X-0.125000X0.537500X-0.125000X0.537500X0.125000X-0.537500X0.125000X0*%
%ADD31R,1.800000X1.800000*%
%ADD32RoundRect,0.225000X-0.225000X-0.250000X0.225000X-0.250000X0.225000X0.250000X-0.225000X0.250000X0*%
%ADD33C,4.000000*%
%ADD34C,1.498600*%
%ADD35RoundRect,0.218750X0.256250X-0.218750X0.256250X0.218750X-0.256250X0.218750X-0.256250X-0.218750X0*%
%ADD36RoundRect,0.250000X-1.075000X-0.550000X1.075000X-0.550000X1.075000X0.550000X-1.075000X0.550000X0*%
%ADD37RoundRect,0.243750X-0.243750X-0.456250X0.243750X-0.456250X0.243750X0.456250X-0.243750X0.456250X0*%
%ADD38RoundRect,0.225000X0.225000X0.250000X-0.225000X0.250000X-0.225000X-0.250000X0.225000X-0.250000X0*%
%ADD39RoundRect,0.087500X0.087500X-0.537500X0.087500X0.537500X-0.087500X0.537500X-0.087500X-0.537500X0*%
%ADD40C,3.600000*%
%ADD41RoundRect,0.250000X-0.550000X1.050000X-0.550000X-1.050000X0.550000X-1.050000X0.550000X1.050000X0*%
%ADD42RoundRect,0.250000X0.550000X-0.550000X0.550000X0.550000X-0.550000X0.550000X-0.550000X-0.550000X0*%
%ADD43RoundRect,0.250000X-0.550000X1.250000X-0.550000X-1.250000X0.550000X-1.250000X0.550000X1.250000X0*%
%ADD44RoundRect,0.250002X-1.499998X-1.749998X1.499998X-1.749998X1.499998X1.749998X-1.499998X1.749998X0*%
%ADD45R,0.250000X1.100000*%
%ADD46RoundRect,0.250000X0.262500X0.450000X-0.262500X0.450000X-0.262500X-0.450000X0.262500X-0.450000X0*%
%ADD47RoundRect,0.250000X0.650000X0.650000X-0.650000X0.650000X-0.650000X-0.650000X0.650000X-0.650000X0*%
%ADD48RoundRect,0.250000X1.000000X1.000000X-1.000000X1.000000X-1.000000X-1.000000X1.000000X-1.000000X0*%
%ADD49C,2.500000*%
%ADD50RoundRect,0.250001X-0.799999X1.999999X-0.799999X-1.999999X0.799999X-1.999999X0.799999X1.999999X0*%
%ADD51R,1.700000X1.700000*%
%ADD52C,1.700000*%
%ADD53C,1.300000*%
%ADD54RoundRect,0.200000X-0.800000X-1.250000X0.800000X-1.250000X0.800000X1.250000X-0.800000X1.250000X0*%
%ADD55C,6.000000*%
%ADD56C,8.000000*%
G04 APERTURE END LIST*
D10*
%TO.C,J5*%
X58250000Y-260500000D03*
X60750000Y-265500000D03*
X63250000Y-260500000D03*
X65750000Y-265500000D03*
X68250000Y-260500000D03*
X70750000Y-265500000D03*
X73250000Y-260500000D03*
X75750000Y-265500000D03*
X78250000Y-260500000D03*
X80750000Y-265500000D03*
X83250000Y-260500000D03*
X85750000Y-265500000D03*
X88250000Y-260500000D03*
X90750000Y-265500000D03*
X93250000Y-260500000D03*
X95750000Y-265500000D03*
X98250000Y-260500000D03*
X100750000Y-265500000D03*
X103250000Y-260500000D03*
X105750000Y-265500000D03*
X108250000Y-260500000D03*
X110750000Y-265500000D03*
X113250000Y-260500000D03*
X115750000Y-265500000D03*
%TD*%
D11*
%TO.C,R105*%
X136930000Y-155077581D03*
X138580000Y-155077581D03*
%TD*%
D10*
%TO.C,Q5*%
X140125000Y-167100557D03*
X140125000Y-164560557D03*
D12*
X140125000Y-162020557D03*
%TD*%
D10*
%TO.C,Q2*%
X191790714Y-166927744D03*
X191790714Y-164387744D03*
D12*
X191790714Y-161847744D03*
%TD*%
D10*
%TO.C,Q13*%
X217130000Y-225500000D03*
X217130000Y-222960000D03*
D12*
X217130000Y-220420000D03*
%TD*%
D13*
%TO.C,U28*%
X71945000Y-249710000D03*
D14*
X71945000Y-252250000D03*
X71945000Y-254790000D03*
X79565000Y-254790000D03*
X79565000Y-252250000D03*
X79565000Y-249710000D03*
%TD*%
D11*
%TO.C,R107*%
X162800000Y-184217790D03*
X164450000Y-184217790D03*
%TD*%
D15*
%TO.C,C2*%
X77000000Y-101800000D03*
X85800000Y-101800000D03*
%TD*%
D11*
%TO.C,R108*%
X163125000Y-155077581D03*
X164775000Y-155077581D03*
%TD*%
D16*
%TO.C,R25*%
X166900000Y-235750000D03*
X165250000Y-235750000D03*
%TD*%
D11*
%TO.C,R102*%
X137300000Y-169270557D03*
X138950000Y-169270557D03*
%TD*%
D17*
%TO.C,D19*%
X153962500Y-247000000D03*
X155537500Y-247000000D03*
%TD*%
D18*
%TO.C,C10*%
X178250000Y-207525000D03*
X178250000Y-205975000D03*
%TD*%
D19*
%TO.C,D58*%
X193650714Y-169137744D03*
X192075714Y-169137744D03*
%TD*%
D17*
%TO.C,D22*%
X131500000Y-235750000D03*
X133075000Y-235750000D03*
%TD*%
D19*
%TO.C,D65*%
X193790125Y-214204186D03*
X192215125Y-214204186D03*
%TD*%
D10*
%TO.C,Q14*%
X191870000Y-225646837D03*
X191870000Y-223106837D03*
D12*
X191870000Y-220566837D03*
%TD*%
D20*
%TO.C,J20*%
X155000000Y-211100000D03*
%TD*%
D17*
%TO.C,D25*%
X104250000Y-247000000D03*
X105825000Y-247000000D03*
%TD*%
D21*
%TO.C,R128*%
X120100000Y-217475000D03*
X120100000Y-219125000D03*
%TD*%
D22*
%TO.C,R65*%
X214130000Y-196231326D03*
X214130000Y-194581326D03*
%TD*%
D17*
%TO.C,D28*%
X81712500Y-235750000D03*
X83287500Y-235750000D03*
%TD*%
D23*
%TO.C,C44*%
X145300000Y-82950000D03*
X145300000Y-84500000D03*
%TD*%
D24*
%TO.C,R84*%
X64500000Y-213065000D03*
X64500000Y-214890000D03*
%TD*%
D25*
%TO.C,D2*%
X80750000Y-134000000D03*
D26*
X80750000Y-121300000D03*
%TD*%
D27*
%TO.C,REF\u002A\u002A*%
X243400000Y-248000000D03*
D28*
X243400000Y-242920000D03*
%TD*%
D13*
%TO.C,U8*%
X211445000Y-249960000D03*
D14*
X211445000Y-252500000D03*
X211445000Y-255040000D03*
X219065000Y-255040000D03*
X219065000Y-252500000D03*
X219065000Y-249960000D03*
%TD*%
D11*
%TO.C,R20*%
X187295000Y-235750000D03*
X188945000Y-235750000D03*
%TD*%
D12*
%TO.C,J6*%
X256000000Y-211250000D03*
D10*
X256000000Y-208750000D03*
X256000000Y-206250000D03*
X256000000Y-203750000D03*
X256000000Y-201250000D03*
X256000000Y-198750000D03*
X256000000Y-196250000D03*
X256000000Y-193750000D03*
X256000000Y-191250000D03*
X256000000Y-188750000D03*
X256000000Y-186250000D03*
X256000000Y-183750000D03*
X256000000Y-181250000D03*
X256000000Y-178750000D03*
X256000000Y-176250000D03*
X256000000Y-173750000D03*
%TD*%
D21*
%TO.C,R6*%
X174250000Y-199350000D03*
X174250000Y-201000000D03*
%TD*%
D22*
%TO.C,R63*%
X214130000Y-181549489D03*
X214130000Y-179899489D03*
%TD*%
D29*
%TO.C,D44*%
X221630000Y-220400000D03*
D14*
X221630000Y-228020000D03*
%TD*%
D22*
%TO.C,R122*%
X151000000Y-117375000D03*
X151000000Y-115725000D03*
%TD*%
D17*
%TO.C,D13*%
X198675000Y-247000000D03*
X200250000Y-247000000D03*
%TD*%
D30*
%TO.C,U42*%
X57112500Y-195795000D03*
X57112500Y-196445000D03*
X57112500Y-197095000D03*
X57112500Y-197745000D03*
X59387500Y-197745000D03*
X59387500Y-197095000D03*
X59387500Y-196445000D03*
X59387500Y-195795000D03*
%TD*%
D11*
%TO.C,R18*%
X194795000Y-247000000D03*
X196445000Y-247000000D03*
%TD*%
%TO.C,R47*%
X92795000Y-235750000D03*
X94445000Y-235750000D03*
%TD*%
D10*
%TO.C,Q11*%
X217130000Y-195986326D03*
X217130000Y-193446326D03*
D12*
X217130000Y-190906326D03*
%TD*%
D16*
%TO.C,R21*%
X189075000Y-247000000D03*
X187425000Y-247000000D03*
%TD*%
D13*
%TO.C,U9*%
X232130000Y-238460000D03*
D14*
X232130000Y-241000000D03*
X232130000Y-243540000D03*
X239750000Y-243540000D03*
X239750000Y-241000000D03*
X239750000Y-238460000D03*
%TD*%
D18*
%TO.C,C20*%
X62200000Y-177200000D03*
X62200000Y-175650000D03*
%TD*%
D22*
%TO.C,R66*%
X188894286Y-196772349D03*
X188894286Y-195122349D03*
%TD*%
D13*
%TO.C,U25*%
X94445000Y-238460000D03*
D14*
X94445000Y-241000000D03*
X94445000Y-243540000D03*
X102065000Y-243540000D03*
X102065000Y-241000000D03*
X102065000Y-238460000D03*
%TD*%
D31*
%TO.C,J22*%
X102800000Y-217800000D03*
D26*
X97800000Y-217800000D03*
%TD*%
D16*
%TO.C,R40*%
X109500000Y-247000000D03*
X107850000Y-247000000D03*
%TD*%
D17*
%TO.C,D12*%
X228962500Y-247000000D03*
X230537500Y-247000000D03*
%TD*%
D22*
%TO.C,R70*%
X188752625Y-212279186D03*
X188752625Y-210629186D03*
%TD*%
D32*
%TO.C,C41*%
X132825000Y-118100000D03*
X134375000Y-118100000D03*
%TD*%
D33*
%TO.C,HS1*%
X118700000Y-107250000D03*
X93300000Y-107250000D03*
%TD*%
D21*
%TO.C,R93*%
X90750000Y-204425000D03*
X90750000Y-206075000D03*
%TD*%
D20*
%TO.C,J19*%
X133220000Y-211100000D03*
%TD*%
D22*
%TO.C,R67*%
X214130000Y-225745000D03*
X214130000Y-224095000D03*
%TD*%
D34*
%TO.C,K7*%
X157860000Y-178534441D03*
X155320000Y-178534441D03*
X147700000Y-178534441D03*
X147700000Y-183614441D03*
X155320000Y-183614441D03*
X157860000Y-183614441D03*
%TD*%
D10*
%TO.C,J15*%
X45200000Y-212470000D03*
X50200000Y-210000000D03*
%TD*%
D11*
%TO.C,R29*%
X172545000Y-235750000D03*
X174195000Y-235750000D03*
%TD*%
D16*
%TO.C,R42*%
X94725000Y-247000000D03*
X93075000Y-247000000D03*
%TD*%
D10*
%TO.C,Q15*%
X217130000Y-210743163D03*
X217130000Y-208203163D03*
D12*
X217130000Y-205663163D03*
%TD*%
D13*
%TO.C,U5*%
X170630000Y-209970000D03*
D14*
X170630000Y-212510000D03*
X170630000Y-215050000D03*
X170630000Y-217590000D03*
X170630000Y-220130000D03*
X170630000Y-222670000D03*
X170630000Y-225210000D03*
X170630000Y-227750000D03*
X178250000Y-227750000D03*
X178250000Y-225210000D03*
X178250000Y-222670000D03*
X178250000Y-220130000D03*
X178250000Y-217590000D03*
X178250000Y-215050000D03*
X178250000Y-212510000D03*
X178250000Y-209970000D03*
%TD*%
D13*
%TO.C,U11*%
X196445000Y-249960000D03*
D14*
X196445000Y-252500000D03*
X196445000Y-255040000D03*
X204065000Y-255040000D03*
X204065000Y-252500000D03*
X204065000Y-249960000D03*
%TD*%
D21*
%TO.C,R97*%
X85750000Y-206000000D03*
X85750000Y-207650000D03*
%TD*%
D11*
%TO.C,R123*%
X132775000Y-115700000D03*
X134425000Y-115700000D03*
%TD*%
D18*
%TO.C,C22*%
X61750000Y-229935000D03*
X61750000Y-228385000D03*
%TD*%
D22*
%TO.C,R60*%
X162875000Y-167345558D03*
X162875000Y-165695558D03*
%TD*%
D19*
%TO.C,D64*%
X219205000Y-212913163D03*
X217630000Y-212913163D03*
%TD*%
D11*
%TO.C,R117*%
X132750000Y-105200000D03*
X134400000Y-105200000D03*
%TD*%
D23*
%TO.C,C19*%
X73750000Y-215225000D03*
X73750000Y-216775000D03*
%TD*%
D35*
%TO.C,D53*%
X104800000Y-182087500D03*
X104800000Y-180512500D03*
%TD*%
%TO.C,D48*%
X124800000Y-182087500D03*
X124800000Y-180512500D03*
%TD*%
D19*
%TO.C,D69*%
X193907500Y-227816837D03*
X192332500Y-227816837D03*
%TD*%
D36*
%TO.C,C3*%
X77050000Y-110300000D03*
X80400000Y-110300000D03*
%TD*%
D10*
%TO.C,J14*%
X45200000Y-223470000D03*
X50200000Y-221000000D03*
%TD*%
D11*
%TO.C,R46*%
X100295000Y-247000000D03*
X101945000Y-247000000D03*
%TD*%
D29*
%TO.C,D36*%
X144625000Y-161960557D03*
D14*
X144625000Y-169580557D03*
%TD*%
D31*
%TO.C,U3*%
X102350000Y-116200000D03*
D26*
X104050000Y-112500000D03*
X105750000Y-116200000D03*
X107450000Y-112500000D03*
X109150000Y-116200000D03*
%TD*%
D37*
%TO.C,D1*%
X107000000Y-82000000D03*
X108875000Y-82000000D03*
%TD*%
D17*
%TO.C,D14*%
X191212500Y-235750000D03*
X192787500Y-235750000D03*
%TD*%
D38*
%TO.C,C18*%
X74275000Y-193500000D03*
X72725000Y-193500000D03*
%TD*%
D16*
%TO.C,R26*%
X159250000Y-247000000D03*
X157600000Y-247000000D03*
%TD*%
D17*
%TO.C,D16*%
X176425000Y-235750000D03*
X178000000Y-235750000D03*
%TD*%
D22*
%TO.C,R62*%
X162625000Y-182292790D03*
X162625000Y-180642790D03*
%TD*%
D35*
%TO.C,D49*%
X120800000Y-182087500D03*
X120800000Y-180512500D03*
%TD*%
D22*
%TO.C,R58*%
X162875000Y-153152581D03*
X162875000Y-151502581D03*
%TD*%
D30*
%TO.C,U39*%
X57112500Y-218775000D03*
X57112500Y-219425000D03*
X57112500Y-220075000D03*
X57112500Y-220725000D03*
X59387500Y-220725000D03*
X59387500Y-220075000D03*
X59387500Y-219425000D03*
X59387500Y-218775000D03*
%TD*%
D11*
%TO.C,R10*%
X209795000Y-247000000D03*
X211445000Y-247000000D03*
%TD*%
D18*
%TO.C,C38*%
X153500000Y-117325000D03*
X153500000Y-115775000D03*
%TD*%
D21*
%TO.C,R98*%
X85750000Y-210425000D03*
X85750000Y-212075000D03*
%TD*%
D11*
%TO.C,R54*%
X55326466Y-246762141D03*
X56976466Y-246762141D03*
%TD*%
D35*
%TO.C,D31*%
X59500000Y-246787500D03*
X59500000Y-245212500D03*
%TD*%
D39*
%TO.C,U35*%
X73500000Y-204900000D03*
X74000000Y-204900000D03*
X74500000Y-204900000D03*
X75000000Y-204900000D03*
X75000000Y-202100000D03*
X74500000Y-202100000D03*
X74000000Y-202100000D03*
X73500000Y-202100000D03*
%TD*%
D11*
%TO.C,R124*%
X132675000Y-94800000D03*
X134325000Y-94800000D03*
%TD*%
D40*
%TO.C,REF\u002A\u002A*%
X83000000Y-220900000D03*
%TD*%
D29*
%TO.C,D35*%
X170375000Y-147727581D03*
D14*
X170375000Y-155347581D03*
%TD*%
D22*
%TO.C,R61*%
X136875000Y-182252791D03*
X136875000Y-180602791D03*
%TD*%
D21*
%TO.C,R95*%
X88250000Y-205250000D03*
X88250000Y-206900000D03*
%TD*%
D22*
%TO.C,R56*%
X188650714Y-167212744D03*
X188650714Y-165562744D03*
%TD*%
D34*
%TO.C,K12*%
X209800000Y-193053999D03*
X207260000Y-193053999D03*
X199640000Y-193053999D03*
X199640000Y-198133999D03*
X207260000Y-198133999D03*
X209800000Y-198133999D03*
%TD*%
D11*
%TO.C,R115*%
X189045000Y-227816837D03*
X190695000Y-227816837D03*
%TD*%
D17*
%TO.C,D26*%
X96712500Y-235750000D03*
X98287500Y-235750000D03*
%TD*%
D20*
%TO.C,J21*%
X159600000Y-211100000D03*
%TD*%
D38*
%TO.C,C11*%
X147775000Y-207000000D03*
X146225000Y-207000000D03*
%TD*%
D11*
%TO.C,R101*%
X188666786Y-155364744D03*
X190316786Y-155364744D03*
%TD*%
D21*
%TO.C,R71*%
X124800000Y-176168750D03*
X124800000Y-177818750D03*
%TD*%
D11*
%TO.C,R49*%
X77795000Y-235750000D03*
X79445000Y-235750000D03*
%TD*%
D21*
%TO.C,R74*%
X112800000Y-176168750D03*
X112800000Y-177818750D03*
%TD*%
D16*
%TO.C,R130*%
X82525000Y-192200000D03*
X80875000Y-192200000D03*
%TD*%
D38*
%TO.C,C15*%
X106275000Y-194185000D03*
X104725000Y-194185000D03*
%TD*%
D10*
%TO.C,J13*%
X45200000Y-234470000D03*
X50200000Y-232000000D03*
%TD*%
D24*
%TO.C,R92*%
X64500000Y-190085000D03*
X64500000Y-191910000D03*
%TD*%
D16*
%TO.C,R15*%
X234575000Y-247000000D03*
X232925000Y-247000000D03*
%TD*%
D21*
%TO.C,R99*%
X104800000Y-176168750D03*
X104800000Y-177818750D03*
%TD*%
D13*
%TO.C,U19*%
X136695000Y-249710000D03*
D14*
X136695000Y-252250000D03*
X136695000Y-254790000D03*
X144315000Y-254790000D03*
X144315000Y-252250000D03*
X144315000Y-249710000D03*
%TD*%
D34*
%TO.C,K13*%
X235260000Y-207269813D03*
X232720000Y-207269813D03*
X225100000Y-207269813D03*
X225100000Y-212349813D03*
X232720000Y-212349813D03*
X235260000Y-212349813D03*
%TD*%
D10*
%TO.C,Q9*%
X217130000Y-181229489D03*
X217130000Y-178689489D03*
D12*
X217130000Y-176149489D03*
%TD*%
D29*
%TO.C,D40*%
X221630000Y-176129489D03*
D14*
X221630000Y-183749489D03*
%TD*%
D10*
%TO.C,J16*%
X45200000Y-201470000D03*
X50200000Y-199000000D03*
%TD*%
D41*
%TO.C,C37*%
X97295807Y-150150000D03*
X97295807Y-153750000D03*
%TD*%
D17*
%TO.C,D21*%
X139212500Y-247000000D03*
X140787500Y-247000000D03*
%TD*%
D34*
%TO.C,K2*%
X209760000Y-149681394D03*
X207220000Y-149681394D03*
X199600000Y-149681394D03*
X199600000Y-154761394D03*
X207220000Y-154761394D03*
X209760000Y-154761394D03*
%TD*%
D21*
%TO.C,R86*%
X60450000Y-180075000D03*
X60450000Y-181725000D03*
%TD*%
D11*
%TO.C,R103*%
X163125000Y-169270558D03*
X164775000Y-169270558D03*
%TD*%
D19*
%TO.C,D67*%
X219130000Y-198156326D03*
X217555000Y-198156326D03*
%TD*%
D21*
%TO.C,R100*%
X100800000Y-176168750D03*
X100800000Y-177818750D03*
%TD*%
D17*
%TO.C,D29*%
X74212500Y-247000000D03*
X75787500Y-247000000D03*
%TD*%
D37*
%TO.C,D5*%
X107000000Y-84500000D03*
X108875000Y-84500000D03*
%TD*%
D11*
%TO.C,R8*%
X217295000Y-235750000D03*
X218945000Y-235750000D03*
%TD*%
%TO.C,R110*%
X214380000Y-212913163D03*
X216030000Y-212913163D03*
%TD*%
D16*
%TO.C,R43*%
X87075000Y-235750000D03*
X85425000Y-235750000D03*
%TD*%
D13*
%TO.C,U31*%
X109695000Y-209860000D03*
D14*
X109695000Y-212400000D03*
X109695000Y-214940000D03*
X109695000Y-217480000D03*
X109695000Y-220020000D03*
X109695000Y-222560000D03*
X109695000Y-225100000D03*
X109695000Y-227640000D03*
X117315000Y-227640000D03*
X117315000Y-225100000D03*
X117315000Y-222560000D03*
X117315000Y-220020000D03*
X117315000Y-217480000D03*
X117315000Y-214940000D03*
X117315000Y-212400000D03*
X117315000Y-209860000D03*
%TD*%
D20*
%TO.C,J18*%
X124400000Y-211100000D03*
%TD*%
D33*
%TO.C,HS2*%
X62950000Y-139000000D03*
X37550000Y-139000000D03*
%TD*%
D13*
%TO.C,U12*%
X188945000Y-238460000D03*
D14*
X188945000Y-241000000D03*
X188945000Y-243540000D03*
X196565000Y-243540000D03*
X196565000Y-241000000D03*
X196565000Y-238460000D03*
%TD*%
D19*
%TO.C,D68*%
X219130000Y-227670000D03*
X217555000Y-227670000D03*
%TD*%
D42*
%TO.C,U33*%
X163860000Y-196805000D03*
D14*
X166400000Y-196805000D03*
X168940000Y-196805000D03*
X171480000Y-196805000D03*
X174020000Y-196805000D03*
X176560000Y-196805000D03*
X179100000Y-196805000D03*
X181640000Y-196805000D03*
X181640000Y-189185000D03*
X179100000Y-189185000D03*
X176560000Y-189185000D03*
X174020000Y-189185000D03*
X171480000Y-189185000D03*
X168940000Y-189185000D03*
X166400000Y-189185000D03*
X163860000Y-189185000D03*
%TD*%
D10*
%TO.C,Q4*%
X165875000Y-152907581D03*
X165875000Y-150367581D03*
D12*
X165875000Y-147827581D03*
%TD*%
D24*
%TO.C,R90*%
X64500000Y-197745000D03*
X64500000Y-199570000D03*
%TD*%
D35*
%TO.C,D52*%
X108800000Y-182087500D03*
X108800000Y-180512500D03*
%TD*%
D38*
%TO.C,C32*%
X58525000Y-186250000D03*
X56975000Y-186250000D03*
%TD*%
D29*
%TO.C,D33*%
X196400714Y-161827744D03*
D14*
X196400714Y-169447744D03*
%TD*%
D30*
%TO.C,U43*%
X57112500Y-188135000D03*
X57112500Y-188785000D03*
X57112500Y-189435000D03*
X57112500Y-190085000D03*
X59387500Y-190085000D03*
X59387500Y-189435000D03*
X59387500Y-188785000D03*
X59387500Y-188135000D03*
%TD*%
D24*
%TO.C,R88*%
X64500000Y-205405000D03*
X64500000Y-207230000D03*
%TD*%
D16*
%TO.C,R23*%
X181825000Y-235750000D03*
X180175000Y-235750000D03*
%TD*%
D11*
%TO.C,R112*%
X189017500Y-183940512D03*
X190667500Y-183940512D03*
%TD*%
D29*
%TO.C,D34*%
X144505000Y-147727581D03*
D14*
X144505000Y-155347581D03*
%TD*%
D23*
%TO.C,C21*%
X62200000Y-180175000D03*
X62200000Y-181725000D03*
%TD*%
D34*
%TO.C,K10*%
X210000000Y-178297162D03*
X207460000Y-178297162D03*
X199840000Y-178297162D03*
X199840000Y-183377162D03*
X207460000Y-183377162D03*
X210000000Y-183377162D03*
%TD*%
D16*
%TO.C,R19*%
X196575000Y-235750000D03*
X194925000Y-235750000D03*
%TD*%
D34*
%TO.C,K9*%
X235100000Y-177756139D03*
X232560000Y-177756139D03*
X224940000Y-177756139D03*
X224940000Y-182836139D03*
X232560000Y-182836139D03*
X235100000Y-182836139D03*
%TD*%
D16*
%TO.C,R44*%
X79575000Y-247000000D03*
X77925000Y-247000000D03*
%TD*%
%TO.C,R27*%
X151900000Y-235750000D03*
X150250000Y-235750000D03*
%TD*%
D29*
%TO.C,D37*%
X170375000Y-161960558D03*
D14*
X170375000Y-169580558D03*
%TD*%
D29*
%TO.C,D46*%
X221630000Y-205643163D03*
D14*
X221630000Y-213263163D03*
%TD*%
D41*
%TO.C,C36*%
X65250000Y-151225000D03*
X65250000Y-154825000D03*
%TD*%
D32*
%TO.C,C39*%
X151100000Y-101050000D03*
X152650000Y-101050000D03*
%TD*%
D42*
%TO.C,U44*%
X80860000Y-201805000D03*
D14*
X83400000Y-201805000D03*
X85940000Y-201805000D03*
X88480000Y-201805000D03*
X91020000Y-201805000D03*
X93560000Y-201805000D03*
X96100000Y-201805000D03*
X98640000Y-201805000D03*
X98640000Y-194185000D03*
X96100000Y-194185000D03*
X93560000Y-194185000D03*
X91020000Y-194185000D03*
X88480000Y-194185000D03*
X85940000Y-194185000D03*
X83400000Y-194185000D03*
X80860000Y-194185000D03*
%TD*%
D18*
%TO.C,C16*%
X75250000Y-209050000D03*
X75250000Y-207500000D03*
%TD*%
D38*
%TO.C,C30*%
X58525000Y-193900000D03*
X56975000Y-193900000D03*
%TD*%
D43*
%TO.C,C8*%
X102250000Y-119550000D03*
X102250000Y-123950000D03*
%TD*%
D35*
%TO.C,D50*%
X116800000Y-182087500D03*
X116800000Y-180512500D03*
%TD*%
D16*
%TO.C,R78*%
X73575000Y-207525000D03*
X71925000Y-207525000D03*
%TD*%
D11*
%TO.C,R104*%
X188750714Y-169137744D03*
X190400714Y-169137744D03*
%TD*%
D13*
%TO.C,U6*%
X226565000Y-249960000D03*
D14*
X226565000Y-252500000D03*
X226565000Y-255040000D03*
X234185000Y-255040000D03*
X234185000Y-252500000D03*
X234185000Y-249960000D03*
%TD*%
D38*
%TO.C,C34*%
X78500000Y-194185000D03*
X76950000Y-194185000D03*
%TD*%
D27*
%TO.C,REF\u002A\u002A*%
X71300000Y-178280000D03*
D28*
X71300000Y-173200000D03*
%TD*%
D25*
%TO.C,D3*%
X48000000Y-132950000D03*
D26*
X48000000Y-120250000D03*
%TD*%
D11*
%TO.C,R22*%
X179795000Y-247000000D03*
X181445000Y-247000000D03*
%TD*%
D44*
%TO.C,L2*%
X54250000Y-128250000D03*
X63750000Y-128250000D03*
%TD*%
D16*
%TO.C,R77*%
X72575000Y-209750000D03*
X70925000Y-209750000D03*
%TD*%
D31*
%TO.C,U2*%
X79145807Y-147900000D03*
D26*
X80845807Y-144200000D03*
X82545807Y-147900000D03*
X84245807Y-144200000D03*
X85945807Y-147900000D03*
%TD*%
D27*
%TO.C,REF\u002A\u002A*%
X165500000Y-216180000D03*
D28*
X165500000Y-211100000D03*
%TD*%
D21*
%TO.C,R75*%
X108800000Y-176168750D03*
X108800000Y-177818750D03*
%TD*%
%TO.C,R83*%
X80750000Y-207500000D03*
X80750000Y-209150000D03*
%TD*%
D22*
%TO.C,R64*%
X188870000Y-182015512D03*
X188870000Y-180365512D03*
%TD*%
D10*
%TO.C,Q12*%
X191894286Y-196527349D03*
X191894286Y-193987349D03*
D12*
X191894286Y-191447349D03*
%TD*%
D17*
%TO.C,D27*%
X89262500Y-247000000D03*
X90837500Y-247000000D03*
%TD*%
D21*
%TO.C,R96*%
X88250000Y-209925000D03*
X88250000Y-211575000D03*
%TD*%
D16*
%TO.C,R39*%
X117250000Y-235750000D03*
X115600000Y-235750000D03*
%TD*%
D21*
%TO.C,R94*%
X90750000Y-209350000D03*
X90750000Y-211000000D03*
%TD*%
D18*
%TO.C,C13*%
X134400000Y-189475000D03*
X134400000Y-187925000D03*
%TD*%
D20*
%TO.C,J23*%
X96090000Y-211100000D03*
%TD*%
D16*
%TO.C,R17*%
X204075000Y-247000000D03*
X202425000Y-247000000D03*
%TD*%
D45*
%TO.C,U36*%
X71000000Y-214850000D03*
X70500000Y-214850000D03*
X70000000Y-214850000D03*
X69500000Y-214850000D03*
X69000000Y-214850000D03*
X69000000Y-219150000D03*
X69500000Y-219150000D03*
X70000000Y-219150000D03*
X70500000Y-219150000D03*
X71000000Y-219150000D03*
%TD*%
D22*
%TO.C,R59*%
X137125000Y-167345557D03*
X137125000Y-165695557D03*
%TD*%
D29*
%TO.C,D43*%
X196394286Y-191427349D03*
D14*
X196394286Y-199047349D03*
%TD*%
D17*
%TO.C,D10*%
X206250000Y-235750000D03*
X207825000Y-235750000D03*
%TD*%
D19*
%TO.C,D61*%
X167662500Y-184217790D03*
X166087500Y-184217790D03*
%TD*%
D16*
%TO.C,R9*%
X219325000Y-247000000D03*
X217675000Y-247000000D03*
%TD*%
D19*
%TO.C,D66*%
X193870000Y-183940512D03*
X192295000Y-183940512D03*
%TD*%
D34*
%TO.C,K3*%
X158000000Y-149354231D03*
X155460000Y-149354231D03*
X147840000Y-149354231D03*
X147840000Y-154434231D03*
X155460000Y-154434231D03*
X158000000Y-154434231D03*
%TD*%
D17*
%TO.C,D17*%
X168712500Y-247000000D03*
X170287500Y-247000000D03*
%TD*%
D13*
%TO.C,U18*%
X144195000Y-238460000D03*
D14*
X144195000Y-241000000D03*
X144195000Y-243540000D03*
X151815000Y-243540000D03*
X151815000Y-241000000D03*
X151815000Y-238460000D03*
%TD*%
D38*
%TO.C,C28*%
X58525000Y-201550000D03*
X56975000Y-201550000D03*
%TD*%
D21*
%TO.C,R127*%
X150300000Y-217590000D03*
X150300000Y-219240000D03*
%TD*%
D37*
%TO.C,D4*%
X107000000Y-87000000D03*
X108875000Y-87000000D03*
%TD*%
D17*
%TO.C,D18*%
X161462500Y-235750000D03*
X163037500Y-235750000D03*
%TD*%
%TO.C,D15*%
X183712500Y-247000000D03*
X185287500Y-247000000D03*
%TD*%
D21*
%TO.C,R87*%
X80750000Y-211425000D03*
X80750000Y-213075000D03*
%TD*%
D16*
%TO.C,R28*%
X144650000Y-247000000D03*
X143000000Y-247000000D03*
%TD*%
D29*
%TO.C,D41*%
X196370000Y-176670512D03*
D14*
X196370000Y-184290512D03*
%TD*%
D24*
%TO.C,R79*%
X64500000Y-228385000D03*
X64500000Y-230210000D03*
%TD*%
D11*
%TO.C,R119*%
X151000000Y-103050000D03*
X152650000Y-103050000D03*
%TD*%
D10*
%TO.C,Q7*%
X139875000Y-182007791D03*
X139875000Y-179467791D03*
D12*
X139875000Y-176927791D03*
%TD*%
D46*
%TO.C,R1*%
X113250000Y-82000000D03*
X111425000Y-82000000D03*
%TD*%
D16*
%TO.C,R51*%
X71825000Y-235750000D03*
X70175000Y-235750000D03*
%TD*%
D32*
%TO.C,C43*%
X132800000Y-97200000D03*
X134350000Y-97200000D03*
%TD*%
D11*
%TO.C,R37*%
X127545000Y-235750000D03*
X129195000Y-235750000D03*
%TD*%
D42*
%TO.C,U34*%
X108880000Y-201805000D03*
D14*
X111420000Y-201805000D03*
X113960000Y-201805000D03*
X116500000Y-201805000D03*
X119040000Y-201805000D03*
X121580000Y-201805000D03*
X124120000Y-201805000D03*
X126660000Y-201805000D03*
X126660000Y-194185000D03*
X124120000Y-194185000D03*
X121580000Y-194185000D03*
X119040000Y-194185000D03*
X116500000Y-194185000D03*
X113960000Y-194185000D03*
X111420000Y-194185000D03*
X108880000Y-194185000D03*
%TD*%
D29*
%TO.C,D38*%
X144375000Y-176907791D03*
D14*
X144375000Y-184527791D03*
%TD*%
D13*
%TO.C,U21*%
X121695000Y-249710000D03*
D14*
X121695000Y-252250000D03*
X121695000Y-254790000D03*
X129315000Y-254790000D03*
X129315000Y-252250000D03*
X129315000Y-249710000D03*
%TD*%
D21*
%TO.C,R126*%
X180800000Y-217590000D03*
X180800000Y-219240000D03*
%TD*%
%TO.C,R89*%
X83250000Y-206750000D03*
X83250000Y-208400000D03*
%TD*%
D34*
%TO.C,K11*%
X235060000Y-192512976D03*
X232520000Y-192512976D03*
X224900000Y-192512976D03*
X224900000Y-197592976D03*
X232520000Y-197592976D03*
X235060000Y-197592976D03*
%TD*%
D22*
%TO.C,R120*%
X153200000Y-110375000D03*
X153200000Y-108725000D03*
%TD*%
D11*
%TO.C,R14*%
X230480000Y-235750000D03*
X232130000Y-235750000D03*
%TD*%
D17*
%TO.C,D11*%
X234462500Y-235750000D03*
X236037500Y-235750000D03*
%TD*%
D11*
%TO.C,R30*%
X165045000Y-247000000D03*
X166695000Y-247000000D03*
%TD*%
D34*
%TO.C,K1*%
X210040000Y-163454394D03*
X207500000Y-163454394D03*
X199880000Y-163454394D03*
X199880000Y-168534394D03*
X207500000Y-168534394D03*
X210040000Y-168534394D03*
%TD*%
D16*
%TO.C,R129*%
X110525000Y-192000000D03*
X108875000Y-192000000D03*
%TD*%
D11*
%TO.C,R50*%
X70295000Y-247000000D03*
X71945000Y-247000000D03*
%TD*%
D35*
%TO.C,D51*%
X112800000Y-182087500D03*
X112800000Y-180512500D03*
%TD*%
D10*
%TO.C,Q8*%
X165625000Y-182047790D03*
X165625000Y-179507790D03*
D12*
X165625000Y-176967790D03*
%TD*%
D13*
%TO.C,U14*%
X174195000Y-238460000D03*
D14*
X174195000Y-241000000D03*
X174195000Y-243540000D03*
X181815000Y-243540000D03*
X181815000Y-241000000D03*
X181815000Y-238460000D03*
%TD*%
D13*
%TO.C,U16*%
X159195000Y-238460000D03*
D14*
X159195000Y-241000000D03*
X159195000Y-243540000D03*
X166815000Y-243540000D03*
X166815000Y-241000000D03*
X166815000Y-238460000D03*
%TD*%
D38*
%TO.C,C24*%
X58525000Y-216850000D03*
X56975000Y-216850000D03*
%TD*%
D47*
%TO.C,D6*%
X103850000Y-101750000D03*
D26*
X91150000Y-101750000D03*
%TD*%
D11*
%TO.C,R33*%
X142545000Y-235750000D03*
X144195000Y-235750000D03*
%TD*%
%TO.C,R48*%
X85325000Y-247000000D03*
X86975000Y-247000000D03*
%TD*%
D10*
%TO.C,J3*%
X187750000Y-260500000D03*
X190250000Y-265500000D03*
X192750000Y-260500000D03*
X195250000Y-265500000D03*
X197750000Y-260500000D03*
X200250000Y-265500000D03*
X202750000Y-260500000D03*
X205250000Y-265500000D03*
X207750000Y-260500000D03*
X210250000Y-265500000D03*
X212750000Y-260500000D03*
X215250000Y-265500000D03*
X217750000Y-260500000D03*
X220250000Y-265500000D03*
X222750000Y-260500000D03*
X225250000Y-265500000D03*
X227750000Y-260500000D03*
X230250000Y-265500000D03*
X232750000Y-260500000D03*
X235250000Y-265500000D03*
X237750000Y-260500000D03*
X240250000Y-265500000D03*
X242750000Y-260500000D03*
X245250000Y-265500000D03*
%TD*%
D11*
%TO.C,R32*%
X150045000Y-247000000D03*
X151695000Y-247000000D03*
%TD*%
D18*
%TO.C,C25*%
X61750000Y-222387500D03*
X61750000Y-220837500D03*
%TD*%
D22*
%TO.C,R57*%
X137005000Y-153152581D03*
X137005000Y-151502581D03*
%TD*%
D35*
%TO.C,D54*%
X100800000Y-182087500D03*
X100800000Y-180512500D03*
%TD*%
D10*
%TO.C,J11*%
X45200000Y-256470000D03*
X50200000Y-254000000D03*
%TD*%
D16*
%TO.C,R2*%
X113112500Y-87000000D03*
X111462500Y-87000000D03*
%TD*%
D38*
%TO.C,C23*%
X58500000Y-224500000D03*
X56950000Y-224500000D03*
%TD*%
D13*
%TO.C,U17*%
X151695000Y-249710000D03*
D14*
X151695000Y-252250000D03*
X151695000Y-254790000D03*
X159315000Y-254790000D03*
X159315000Y-252250000D03*
X159315000Y-249710000D03*
%TD*%
D37*
%TO.C,D7*%
X107000000Y-89500000D03*
X108875000Y-89500000D03*
%TD*%
D19*
%TO.C,D59*%
X141792500Y-155077581D03*
X140217500Y-155077581D03*
%TD*%
D10*
%TO.C,Q16*%
X191752625Y-212034186D03*
X191752625Y-209494186D03*
D12*
X191752625Y-206954186D03*
%TD*%
D13*
%TO.C,U22*%
X140162500Y-209970000D03*
D14*
X140162500Y-212510000D03*
X140162500Y-215050000D03*
X140162500Y-217590000D03*
X140162500Y-220130000D03*
X140162500Y-222670000D03*
X140162500Y-225210000D03*
X140162500Y-227750000D03*
X147782500Y-227750000D03*
X147782500Y-225210000D03*
X147782500Y-222670000D03*
X147782500Y-220130000D03*
X147782500Y-217590000D03*
X147782500Y-215050000D03*
X147782500Y-212510000D03*
X147782500Y-209970000D03*
%TD*%
D45*
%TO.C,U37*%
X71000000Y-191350000D03*
X70500000Y-191350000D03*
X70000000Y-191350000D03*
X69500000Y-191350000D03*
X69000000Y-191350000D03*
X69000000Y-195650000D03*
X69500000Y-195650000D03*
X70000000Y-195650000D03*
X70500000Y-195650000D03*
X71000000Y-195650000D03*
%TD*%
D48*
%TO.C,J2*%
X98250000Y-89250000D03*
D49*
X93250000Y-89250000D03*
%TD*%
D31*
%TO.C,J17*%
X131283750Y-217800000D03*
D26*
X126283750Y-217800000D03*
%TD*%
D34*
%TO.C,K14*%
X209760000Y-208560836D03*
X207220000Y-208560836D03*
X199600000Y-208560836D03*
X199600000Y-213640836D03*
X207220000Y-213640836D03*
X209760000Y-213640836D03*
%TD*%
D29*
%TO.C,D47*%
X196252625Y-206934186D03*
D14*
X196252625Y-214554186D03*
%TD*%
D29*
%TO.C,D32*%
X196316786Y-148054744D03*
D14*
X196316786Y-155674744D03*
%TD*%
D34*
%TO.C,K5*%
X158229700Y-163587207D03*
X155689700Y-163587207D03*
X148069700Y-163587207D03*
X148069700Y-168667207D03*
X155689700Y-168667207D03*
X158229700Y-168667207D03*
%TD*%
D22*
%TO.C,R69*%
X214130000Y-210988163D03*
X214130000Y-209338163D03*
%TD*%
D17*
%TO.C,D30*%
X66462500Y-235750000D03*
X68037500Y-235750000D03*
%TD*%
D23*
%TO.C,C17*%
X74500000Y-198225000D03*
X74500000Y-199775000D03*
%TD*%
D29*
%TO.C,D42*%
X221630000Y-190886326D03*
D14*
X221630000Y-198506326D03*
%TD*%
D13*
%TO.C,U20*%
X129195000Y-238460000D03*
D14*
X129195000Y-241000000D03*
X129195000Y-243540000D03*
X136815000Y-243540000D03*
X136815000Y-241000000D03*
X136815000Y-238460000D03*
%TD*%
D20*
%TO.C,J24*%
X104410000Y-211100000D03*
%TD*%
D29*
%TO.C,D39*%
X170125000Y-176907790D03*
D14*
X170125000Y-184527790D03*
%TD*%
D22*
%TO.C,R5*%
X172000000Y-203900000D03*
X172000000Y-202250000D03*
%TD*%
D13*
%TO.C,U29*%
X64445000Y-238460000D03*
D14*
X64445000Y-241000000D03*
X64445000Y-243540000D03*
X72065000Y-243540000D03*
X72065000Y-241000000D03*
X72065000Y-238460000D03*
%TD*%
D10*
%TO.C,Q6*%
X165875000Y-167100558D03*
X165875000Y-164560558D03*
D12*
X165875000Y-162020558D03*
%TD*%
D13*
%TO.C,U15*%
X166695000Y-249960000D03*
D14*
X166695000Y-252500000D03*
X166695000Y-255040000D03*
X174315000Y-255040000D03*
X174315000Y-252500000D03*
X174315000Y-249960000D03*
%TD*%
D27*
%TO.C,REF\u002A\u002A*%
X66200000Y-178280000D03*
D28*
X66200000Y-173200000D03*
%TD*%
D11*
%TO.C,R31*%
X157545000Y-235750000D03*
X159195000Y-235750000D03*
%TD*%
D23*
%TO.C,C14*%
X161250000Y-189185000D03*
X161250000Y-190735000D03*
%TD*%
D27*
%TO.C,REF\u002A\u002A*%
X76500000Y-178300000D03*
D28*
X76500000Y-173220000D03*
%TD*%
D13*
%TO.C,U23*%
X109445000Y-238460000D03*
D14*
X109445000Y-241000000D03*
X109445000Y-243540000D03*
X117065000Y-243540000D03*
X117065000Y-241000000D03*
X117065000Y-238460000D03*
%TD*%
D50*
%TO.C,C9*%
X113000000Y-119650000D03*
X113000000Y-126850000D03*
%TD*%
D11*
%TO.C,R106*%
X137050000Y-184177791D03*
X138700000Y-184177791D03*
%TD*%
%TO.C,R113*%
X214305000Y-198156326D03*
X215955000Y-198156326D03*
%TD*%
D10*
%TO.C,Q1*%
X191816786Y-153194744D03*
X191816786Y-150654744D03*
D12*
X191816786Y-148114744D03*
%TD*%
D13*
%TO.C,U7*%
X218945000Y-238460000D03*
D14*
X218945000Y-241000000D03*
X218945000Y-243540000D03*
X226565000Y-243540000D03*
X226565000Y-241000000D03*
X226565000Y-238460000D03*
%TD*%
D10*
%TO.C,J10*%
X45200000Y-167250000D03*
X50200000Y-169750000D03*
X45200000Y-172250000D03*
%TD*%
D11*
%TO.C,R52*%
X55350000Y-244750000D03*
X57000000Y-244750000D03*
%TD*%
D10*
%TO.C,J4*%
X123000000Y-260500000D03*
X125500000Y-265500000D03*
X128000000Y-260500000D03*
X130500000Y-265500000D03*
X133000000Y-260500000D03*
X135500000Y-265500000D03*
X138000000Y-260500000D03*
X140500000Y-265500000D03*
X143000000Y-260500000D03*
X145500000Y-265500000D03*
X148000000Y-260500000D03*
X150500000Y-265500000D03*
X153000000Y-260500000D03*
X155500000Y-265500000D03*
X158000000Y-260500000D03*
X160500000Y-265500000D03*
X163000000Y-260500000D03*
X165500000Y-265500000D03*
X168000000Y-260500000D03*
X170500000Y-265500000D03*
X173000000Y-260500000D03*
X175500000Y-265500000D03*
X178000000Y-260500000D03*
X180500000Y-265500000D03*
%TD*%
D13*
%TO.C,U30*%
X56945000Y-249710000D03*
D14*
X56945000Y-252250000D03*
X56945000Y-254790000D03*
X64565000Y-254790000D03*
X64565000Y-252250000D03*
X64565000Y-249710000D03*
%TD*%
D11*
%TO.C,R125*%
X143650000Y-81200000D03*
X145300000Y-81200000D03*
%TD*%
D16*
%TO.C,R11*%
X211575000Y-235750000D03*
X209925000Y-235750000D03*
%TD*%
D11*
%TO.C,R53*%
X62795000Y-235790000D03*
X64445000Y-235790000D03*
%TD*%
%TO.C,R114*%
X214305000Y-227670000D03*
X215955000Y-227670000D03*
%TD*%
D44*
%TO.C,L3*%
X110000000Y-97250000D03*
X119500000Y-97250000D03*
%TD*%
D11*
%TO.C,R34*%
X135045000Y-247000000D03*
X136695000Y-247000000D03*
%TD*%
D16*
%TO.C,R121*%
X157650000Y-103050000D03*
X156000000Y-103050000D03*
%TD*%
D10*
%TO.C,Q3*%
X140005000Y-152907581D03*
X140005000Y-150367581D03*
D12*
X140005000Y-147827581D03*
%TD*%
D32*
%TO.C,C42*%
X132825000Y-107500000D03*
X134375000Y-107500000D03*
%TD*%
D11*
%TO.C,R118*%
X147425000Y-103050000D03*
X149075000Y-103050000D03*
%TD*%
D18*
%TO.C,C33*%
X61750000Y-191635000D03*
X61750000Y-190085000D03*
%TD*%
D22*
%TO.C,R85*%
X60450000Y-177300000D03*
X60450000Y-175650000D03*
%TD*%
D16*
%TO.C,R41*%
X102325000Y-235750000D03*
X100675000Y-235750000D03*
%TD*%
D19*
%TO.C,D70*%
X193894286Y-198697349D03*
X192319286Y-198697349D03*
%TD*%
D30*
%TO.C,U38*%
X57112500Y-226435000D03*
X57112500Y-227085000D03*
X57112500Y-227735000D03*
X57112500Y-228385000D03*
X59387500Y-228385000D03*
X59387500Y-227735000D03*
X59387500Y-227085000D03*
X59387500Y-226435000D03*
%TD*%
D11*
%TO.C,R45*%
X107795000Y-235750000D03*
X109445000Y-235750000D03*
%TD*%
D13*
%TO.C,U27*%
X79445000Y-238460000D03*
D14*
X79445000Y-241000000D03*
X79445000Y-243540000D03*
X87065000Y-243540000D03*
X87065000Y-241000000D03*
X87065000Y-238460000D03*
%TD*%
D22*
%TO.C,R55*%
X188816786Y-153439744D03*
X188816786Y-151789744D03*
%TD*%
D29*
%TO.C,D45*%
X196370000Y-220546837D03*
D14*
X196370000Y-228166837D03*
%TD*%
D16*
%TO.C,R3*%
X113250000Y-84500000D03*
X111600000Y-84500000D03*
%TD*%
D43*
%TO.C,C4*%
X49000000Y-151500000D03*
X49000000Y-155900000D03*
%TD*%
D34*
%TO.C,K6*%
X183860000Y-163587208D03*
X181320000Y-163587208D03*
X173700000Y-163587208D03*
X173700000Y-168667208D03*
X181320000Y-168667208D03*
X183860000Y-168667208D03*
%TD*%
D16*
%TO.C,R4*%
X113325000Y-89500000D03*
X111675000Y-89500000D03*
%TD*%
D38*
%TO.C,C12*%
X117275000Y-207250000D03*
X115725000Y-207250000D03*
%TD*%
D10*
%TO.C,J9*%
X45200000Y-186500000D03*
X50200000Y-189000000D03*
X45200000Y-191500000D03*
%TD*%
D13*
%TO.C,U24*%
X101945000Y-249710000D03*
D14*
X101945000Y-252250000D03*
X101945000Y-254790000D03*
X109565000Y-254790000D03*
X109565000Y-252250000D03*
X109565000Y-249710000D03*
%TD*%
D18*
%TO.C,C29*%
X61750000Y-206955000D03*
X61750000Y-205405000D03*
%TD*%
D38*
%TO.C,C26*%
X58525000Y-209200000D03*
X56975000Y-209200000D03*
%TD*%
D13*
%TO.C,U10*%
X203945000Y-238460000D03*
D14*
X203945000Y-241000000D03*
X203945000Y-243540000D03*
X211565000Y-243540000D03*
X211565000Y-241000000D03*
X211565000Y-238460000D03*
%TD*%
D21*
%TO.C,R81*%
X78250000Y-212175000D03*
X78250000Y-213825000D03*
%TD*%
D33*
%TO.C,HS3*%
X95245807Y-138950000D03*
X69845807Y-138950000D03*
%TD*%
D17*
%TO.C,D8*%
X221212500Y-235750000D03*
X222787500Y-235750000D03*
%TD*%
D18*
%TO.C,C31*%
X61750000Y-199295000D03*
X61750000Y-197745000D03*
%TD*%
D19*
%TO.C,D57*%
X167912500Y-169270558D03*
X166337500Y-169270558D03*
%TD*%
D21*
%TO.C,R72*%
X120800000Y-176168750D03*
X120800000Y-177818750D03*
%TD*%
D28*
%TO.C,J1*%
X69800000Y-93100000D03*
X57300000Y-93100000D03*
X69800000Y-96900000D03*
X57300000Y-96900000D03*
X69800000Y-108100000D03*
X57300000Y-108100000D03*
X69800000Y-111900000D03*
X57300000Y-111900000D03*
%TD*%
D11*
%TO.C,R16*%
X224915000Y-247000000D03*
X226565000Y-247000000D03*
%TD*%
D13*
%TO.C,U26*%
X86945000Y-249710000D03*
D14*
X86945000Y-252250000D03*
X86945000Y-254790000D03*
X94565000Y-254790000D03*
X94565000Y-252250000D03*
X94565000Y-249710000D03*
%TD*%
D50*
%TO.C,C7*%
X57250000Y-151900000D03*
X57250000Y-159100000D03*
%TD*%
D21*
%TO.C,R73*%
X116800000Y-176168750D03*
X116800000Y-177818750D03*
%TD*%
D24*
%TO.C,R82*%
X64500000Y-220837500D03*
X64500000Y-222662500D03*
%TD*%
D44*
%TO.C,L1*%
X86295807Y-129950000D03*
X95795807Y-129950000D03*
%TD*%
D11*
%TO.C,R12*%
X202295000Y-235750000D03*
X203945000Y-235750000D03*
%TD*%
D43*
%TO.C,C5*%
X80795807Y-151250000D03*
X80795807Y-155650000D03*
%TD*%
D17*
%TO.C,D23*%
X124000000Y-247000000D03*
X125575000Y-247000000D03*
%TD*%
D11*
%TO.C,R111*%
X188752625Y-214204186D03*
X190402625Y-214204186D03*
%TD*%
D30*
%TO.C,U41*%
X57112500Y-203455000D03*
X57112500Y-204105000D03*
X57112500Y-204755000D03*
X57112500Y-205405000D03*
X59387500Y-205405000D03*
X59387500Y-204755000D03*
X59387500Y-204105000D03*
X59387500Y-203455000D03*
%TD*%
D19*
%TO.C,D60*%
X141912500Y-184177791D03*
X140337500Y-184177791D03*
%TD*%
D41*
%TO.C,C35*%
X121000000Y-118700000D03*
X121000000Y-122300000D03*
%TD*%
D28*
%TO.C,J8*%
X233000000Y-165400000D03*
X245500000Y-165400000D03*
X233000000Y-161600000D03*
X245500000Y-161600000D03*
X233000000Y-150400000D03*
X245500000Y-150400000D03*
X233000000Y-146600000D03*
X245500000Y-146600000D03*
%TD*%
D21*
%TO.C,R91*%
X83250000Y-210925000D03*
X83250000Y-212575000D03*
%TD*%
D42*
%TO.C,U32*%
X136900000Y-197065000D03*
D14*
X139440000Y-197065000D03*
X141980000Y-197065000D03*
X144520000Y-197065000D03*
X147060000Y-197065000D03*
X149600000Y-197065000D03*
X152140000Y-197065000D03*
X154680000Y-197065000D03*
X154680000Y-189445000D03*
X152140000Y-189445000D03*
X149600000Y-189445000D03*
X147060000Y-189445000D03*
X144520000Y-189445000D03*
X141980000Y-189445000D03*
X139440000Y-189445000D03*
X136900000Y-189445000D03*
%TD*%
D11*
%TO.C,R116*%
X188819286Y-198697349D03*
X190469286Y-198697349D03*
%TD*%
D19*
%TO.C,D62*%
X167912500Y-155077581D03*
X166337500Y-155077581D03*
%TD*%
D17*
%TO.C,D24*%
X111712500Y-235750000D03*
X113287500Y-235750000D03*
%TD*%
%TO.C,D20*%
X146500000Y-235750000D03*
X148075000Y-235750000D03*
%TD*%
D19*
%TO.C,D55*%
X193816786Y-155364744D03*
X192241786Y-155364744D03*
%TD*%
D16*
%TO.C,R24*%
X174000000Y-247000000D03*
X172350000Y-247000000D03*
%TD*%
D13*
%TO.C,U13*%
X181445000Y-249960000D03*
D14*
X181445000Y-252500000D03*
X181445000Y-255040000D03*
X189065000Y-255040000D03*
X189065000Y-252500000D03*
X189065000Y-249960000D03*
%TD*%
D51*
%TO.C,J25*%
X147745000Y-127000000D03*
D52*
X145205000Y-127000000D03*
X142665000Y-127000000D03*
X140125000Y-127000000D03*
X137585000Y-127000000D03*
X135045000Y-127000000D03*
%TD*%
D17*
%TO.C,D9*%
X213712500Y-247000000D03*
X215287500Y-247000000D03*
%TD*%
D21*
%TO.C,R80*%
X78250000Y-208250000D03*
X78250000Y-209900000D03*
%TD*%
D30*
%TO.C,U40*%
X57112500Y-211115000D03*
X57112500Y-211765000D03*
X57112500Y-212415000D03*
X57112500Y-213065000D03*
X59387500Y-213065000D03*
X59387500Y-212415000D03*
X59387500Y-211765000D03*
X59387500Y-211115000D03*
%TD*%
D16*
%TO.C,R13*%
X239825000Y-235750000D03*
X238175000Y-235750000D03*
%TD*%
%TO.C,R36*%
X129400000Y-247000000D03*
X127750000Y-247000000D03*
%TD*%
D15*
%TO.C,C1*%
X77100000Y-88700000D03*
X85900000Y-88700000D03*
%TD*%
D31*
%TO.C,U1*%
X46850000Y-147950000D03*
D26*
X48550000Y-144250000D03*
X50250000Y-147950000D03*
X51950000Y-144250000D03*
X53650000Y-147950000D03*
%TD*%
D34*
%TO.C,K16*%
X209900000Y-222173487D03*
X207360000Y-222173487D03*
X199740000Y-222173487D03*
X199740000Y-227253487D03*
X207360000Y-227253487D03*
X209900000Y-227253487D03*
%TD*%
D16*
%TO.C,R35*%
X136900000Y-235750000D03*
X135250000Y-235750000D03*
%TD*%
D10*
%TO.C,Q10*%
X191870000Y-181770512D03*
X191870000Y-179230512D03*
D12*
X191870000Y-176690512D03*
%TD*%
D16*
%TO.C,R7*%
X226825000Y-235750000D03*
X225175000Y-235750000D03*
%TD*%
D11*
%TO.C,R109*%
X214380000Y-183399489D03*
X216030000Y-183399489D03*
%TD*%
D18*
%TO.C,C40*%
X159750000Y-104575000D03*
X159750000Y-103025000D03*
%TD*%
D34*
%TO.C,K15*%
X235260000Y-222026650D03*
X232720000Y-222026650D03*
X225100000Y-222026650D03*
X225100000Y-227106650D03*
X232720000Y-227106650D03*
X235260000Y-227106650D03*
%TD*%
D50*
%TO.C,C6*%
X89795807Y-151100000D03*
X89795807Y-158300000D03*
%TD*%
D18*
%TO.C,C27*%
X61750000Y-214615000D03*
X61750000Y-213065000D03*
%TD*%
D11*
%TO.C,R38*%
X120045000Y-247000000D03*
X121695000Y-247000000D03*
%TD*%
D10*
%TO.C,J12*%
X45200000Y-245470000D03*
X50200000Y-243000000D03*
%TD*%
D19*
%TO.C,D63*%
X219167500Y-183399489D03*
X217592500Y-183399489D03*
%TD*%
D22*
%TO.C,R68*%
X188870000Y-225891837D03*
X188870000Y-224241837D03*
%TD*%
D19*
%TO.C,D56*%
X142162500Y-169270557D03*
X140587500Y-169270557D03*
%TD*%
D12*
%TO.C,J7*%
X256000000Y-257750000D03*
D10*
X256000000Y-255250000D03*
X256000000Y-252750000D03*
X256000000Y-250250000D03*
X256000000Y-247750000D03*
X256000000Y-245250000D03*
X256000000Y-242750000D03*
X256000000Y-240250000D03*
X256000000Y-237750000D03*
X256000000Y-235250000D03*
X256000000Y-232750000D03*
X256000000Y-230250000D03*
X256000000Y-227750000D03*
X256000000Y-225250000D03*
X256000000Y-222750000D03*
X256000000Y-220250000D03*
%TD*%
D34*
%TO.C,K8*%
X183800000Y-178534440D03*
X181260000Y-178534440D03*
X173640000Y-178534440D03*
X173640000Y-183614440D03*
X181260000Y-183614440D03*
X183800000Y-183614440D03*
%TD*%
%TO.C,K4*%
X183840000Y-149354231D03*
X181300000Y-149354231D03*
X173680000Y-149354231D03*
X173680000Y-154434231D03*
X181300000Y-154434231D03*
X183840000Y-154434231D03*
%TD*%
D53*
%TO.C,SW5*%
X137800000Y-84500000D03*
X139800000Y-84500000D03*
X141800000Y-84500000D03*
X137800000Y-89500000D03*
X139800000Y-89500000D03*
X141800000Y-89500000D03*
%TD*%
%TO.C,SW2*%
X137800000Y-115800000D03*
X139800000Y-115800000D03*
X141800000Y-115800000D03*
X137800000Y-120800000D03*
X139800000Y-120800000D03*
X141800000Y-120800000D03*
%TD*%
%TO.C,SW3*%
X137800000Y-105200000D03*
X139800000Y-105200000D03*
X141800000Y-105200000D03*
X137800000Y-110200000D03*
X139800000Y-110200000D03*
X141800000Y-110200000D03*
%TD*%
%TO.C,SW4*%
X137800000Y-94800000D03*
X139800000Y-94800000D03*
X141800000Y-94800000D03*
X137800000Y-99800000D03*
X139800000Y-99800000D03*
X141800000Y-99800000D03*
%TD*%
D54*
%TO.C,SW1*%
X147200000Y-113300000D03*
X159800000Y-113300000D03*
D26*
X151000000Y-105800000D03*
X156000000Y-105800000D03*
X153500000Y-105800000D03*
X151000000Y-120300000D03*
X156000000Y-120300000D03*
%TD*%
D55*
%TO.C,RP*%
X184250000Y-136000000D03*
X242250000Y-136000000D03*
X184250000Y-87000000D03*
X242250000Y-87000000D03*
%TD*%
D51*
%TO.C,U4*%
X167460000Y-134620000D03*
D52*
X170000000Y-134620000D03*
X167460000Y-132080000D03*
X170000000Y-132080000D03*
X167460000Y-129540000D03*
X170000000Y-129540000D03*
X167460000Y-127000000D03*
X170000000Y-127000000D03*
X167460000Y-124460000D03*
X170000000Y-124460000D03*
X167460000Y-121920000D03*
X170000000Y-121920000D03*
X167460000Y-119380000D03*
X170000000Y-119380000D03*
X167460000Y-116840000D03*
X170000000Y-116840000D03*
X167460000Y-114300000D03*
X170000000Y-114300000D03*
X167460000Y-111760000D03*
X170000000Y-111760000D03*
X167460000Y-109220000D03*
X170000000Y-109220000D03*
X167460000Y-106680000D03*
X170000000Y-106680000D03*
X167460000Y-104140000D03*
X170000000Y-104140000D03*
X167460000Y-101600000D03*
X170000000Y-101600000D03*
X167460000Y-99060000D03*
X170000000Y-99060000D03*
X167460000Y-96520000D03*
X170000000Y-96520000D03*
X167460000Y-93980000D03*
X170000000Y-93980000D03*
X167460000Y-91440000D03*
X170000000Y-91440000D03*
X167460000Y-88900000D03*
X170000000Y-88900000D03*
X167460000Y-86360000D03*
X170000000Y-86360000D03*
%TD*%
D56*
%TO.C,DP*%
X54900000Y-179500000D03*
X130900000Y-179500000D03*
X54900000Y-81500000D03*
X130900000Y-81500000D03*
%TD*%
M02*
