%TF.GenerationSoftware,KiCad,Pcbnew,9.0.6*%
%TF.CreationDate,2025-11-10T19:23:00+01:00*%
%TF.ProjectId,BGA_Steuerung_4layer,4247415f-5374-4657-9565-72756e675f34,rev?*%
%TF.SameCoordinates,Original*%
%TF.FileFunction,Soldermask,Bot*%
%TF.FilePolarity,Negative*%
%FSLAX46Y46*%
G04 Gerber Fmt 4.6, Leading zero omitted, Abs format (unit mm)*
G04 Created by KiCad (PCBNEW 9.0.6) date 2025-11-10 19:23:00*
%MOMM*%
%LPD*%
G01*
G04 APERTURE LIST*
G04 Aperture macros list*
%AMRoundRect*
0 Rectangle with rounded corners*
0 $1 Rounding radius*
0 $2 $3 $4 $5 $6 $7 $8 $9 X,Y pos of 4 corners*
0 Add a 4 corners polygon primitive as box body*
4,1,4,$2,$3,$4,$5,$6,$7,$8,$9,$2,$3,0*
0 Add four circle primitives for the rounded corners*
1,1,$1+$1,$2,$3*
1,1,$1+$1,$4,$5*
1,1,$1+$1,$6,$7*
1,1,$1+$1,$8,$9*
0 Add four rect primitives between the rounded corners*
20,1,$1+$1,$2,$3,$4,$5,0*
20,1,$1+$1,$4,$5,$6,$7,0*
20,1,$1+$1,$6,$7,$8,$9,0*
20,1,$1+$1,$8,$9,$2,$3,0*%
G04 Aperture macros list end*
%ADD10C,1.500000*%
%ADD11R,1.500000X1.500000*%
%ADD12RoundRect,0.250000X-0.550000X-0.550000X0.550000X-0.550000X0.550000X0.550000X-0.550000X0.550000X0*%
%ADD13C,1.600000*%
%ADD14C,4.300000*%
%ADD15R,0.850000X0.850000*%
%ADD16RoundRect,0.250000X0.650000X-0.650000X0.650000X0.650000X-0.650000X0.650000X-0.650000X-0.650000X0*%
%ADD17C,1.800000*%
%ADD18RoundRect,0.650000X0.650000X-0.650000X0.650000X0.650000X-0.650000X0.650000X-0.650000X-0.650000X0*%
%ADD19C,2.600000*%
%ADD20RoundRect,0.250000X-0.550000X0.550000X-0.550000X-0.550000X0.550000X-0.550000X0.550000X0.550000X0*%
%ADD21R,1.800000X1.800000*%
%ADD22C,4.000000*%
%ADD23C,1.498600*%
%ADD24C,3.600000*%
%ADD25RoundRect,0.250000X0.550000X-0.550000X0.550000X0.550000X-0.550000X0.550000X-0.550000X-0.550000X0*%
%ADD26RoundRect,0.250000X0.650000X0.650000X-0.650000X0.650000X-0.650000X-0.650000X0.650000X-0.650000X0*%
%ADD27RoundRect,0.250000X1.000000X1.000000X-1.000000X1.000000X-1.000000X-1.000000X1.000000X-1.000000X0*%
%ADD28C,2.500000*%
%ADD29R,1.700000X1.700000*%
%ADD30C,1.700000*%
%ADD31C,1.300000*%
%ADD32RoundRect,0.200000X-0.800000X-1.250000X0.800000X-1.250000X0.800000X1.250000X-0.800000X1.250000X0*%
%ADD33C,6.000000*%
%ADD34C,8.000000*%
G04 APERTURE END LIST*
D10*
%TO.C,J5*%
X58250000Y-260500000D03*
X60750000Y-265500000D03*
X63250000Y-260500000D03*
X65750000Y-265500000D03*
X68250000Y-260500000D03*
X70750000Y-265500000D03*
X73250000Y-260500000D03*
X75750000Y-265500000D03*
X78250000Y-260500000D03*
X80750000Y-265500000D03*
X83250000Y-260500000D03*
X85750000Y-265500000D03*
X88250000Y-260500000D03*
X90750000Y-265500000D03*
X93250000Y-260500000D03*
X95750000Y-265500000D03*
X98250000Y-260500000D03*
X100750000Y-265500000D03*
X103250000Y-260500000D03*
X105750000Y-265500000D03*
X108250000Y-260500000D03*
X110750000Y-265500000D03*
X113250000Y-260500000D03*
X115750000Y-265500000D03*
%TD*%
%TO.C,Q5*%
X140125000Y-167100557D03*
X140125000Y-164560557D03*
D11*
X140125000Y-162020557D03*
%TD*%
D10*
%TO.C,Q2*%
X191790714Y-166927744D03*
X191790714Y-164387744D03*
D11*
X191790714Y-161847744D03*
%TD*%
D10*
%TO.C,Q13*%
X217130000Y-225500000D03*
X217130000Y-222960000D03*
D11*
X217130000Y-220420000D03*
%TD*%
D12*
%TO.C,U28*%
X71945000Y-249710000D03*
D13*
X71945000Y-252250000D03*
X71945000Y-254790000D03*
X79565000Y-254790000D03*
X79565000Y-252250000D03*
X79565000Y-249710000D03*
%TD*%
D14*
%TO.C,REF\u002A\u002A*%
X38000000Y-274000000D03*
%TD*%
D10*
%TO.C,Q14*%
X191870000Y-225646837D03*
X191870000Y-223106837D03*
D11*
X191870000Y-220566837D03*
%TD*%
D15*
%TO.C,J20*%
X155000000Y-211100000D03*
%TD*%
D16*
%TO.C,D2*%
X80750000Y-134000000D03*
D17*
X80750000Y-121300000D03*
%TD*%
D18*
%TO.C,REF\u002A\u002A*%
X243400000Y-248000000D03*
D19*
X243400000Y-242920000D03*
%TD*%
D12*
%TO.C,U8*%
X211445000Y-249960000D03*
D13*
X211445000Y-252500000D03*
X211445000Y-255040000D03*
X219065000Y-255040000D03*
X219065000Y-252500000D03*
X219065000Y-249960000D03*
%TD*%
D11*
%TO.C,J6*%
X256000000Y-211250000D03*
D10*
X256000000Y-208750000D03*
X256000000Y-206250000D03*
X256000000Y-203750000D03*
X256000000Y-201250000D03*
X256000000Y-198750000D03*
X256000000Y-196250000D03*
X256000000Y-193750000D03*
X256000000Y-191250000D03*
X256000000Y-188750000D03*
X256000000Y-186250000D03*
X256000000Y-183750000D03*
X256000000Y-181250000D03*
X256000000Y-178750000D03*
X256000000Y-176250000D03*
X256000000Y-173750000D03*
%TD*%
D20*
%TO.C,D44*%
X221630000Y-220400000D03*
D13*
X221630000Y-228020000D03*
%TD*%
D10*
%TO.C,Q11*%
X217130000Y-195986326D03*
X217130000Y-193446326D03*
D11*
X217130000Y-190906326D03*
%TD*%
D12*
%TO.C,U9*%
X232130000Y-238460000D03*
D13*
X232130000Y-241000000D03*
X232130000Y-243540000D03*
X239750000Y-243540000D03*
X239750000Y-241000000D03*
X239750000Y-238460000D03*
%TD*%
D12*
%TO.C,U25*%
X94445000Y-238460000D03*
D13*
X94445000Y-241000000D03*
X94445000Y-243540000D03*
X102065000Y-243540000D03*
X102065000Y-241000000D03*
X102065000Y-238460000D03*
%TD*%
D21*
%TO.C,J22*%
X102800000Y-217800000D03*
D17*
X97800000Y-217800000D03*
%TD*%
D22*
%TO.C,HS1*%
X118700000Y-107250000D03*
X93300000Y-107250000D03*
%TD*%
D15*
%TO.C,J19*%
X133220000Y-211100000D03*
%TD*%
D23*
%TO.C,K7*%
X157860000Y-178534441D03*
X155320000Y-178534441D03*
X147700000Y-178534441D03*
X147700000Y-183614441D03*
X155320000Y-183614441D03*
X157860000Y-183614441D03*
%TD*%
D10*
%TO.C,J15*%
X45200000Y-212470000D03*
X50200000Y-210000000D03*
%TD*%
%TO.C,Q15*%
X217130000Y-210743163D03*
X217130000Y-208203163D03*
D11*
X217130000Y-205663163D03*
%TD*%
D12*
%TO.C,U5*%
X170630000Y-209970000D03*
D13*
X170630000Y-212510000D03*
X170630000Y-215050000D03*
X170630000Y-217590000D03*
X170630000Y-220130000D03*
X170630000Y-222670000D03*
X170630000Y-225210000D03*
X170630000Y-227750000D03*
X178250000Y-227750000D03*
X178250000Y-225210000D03*
X178250000Y-222670000D03*
X178250000Y-220130000D03*
X178250000Y-217590000D03*
X178250000Y-215050000D03*
X178250000Y-212510000D03*
X178250000Y-209970000D03*
%TD*%
D12*
%TO.C,U11*%
X196445000Y-249960000D03*
D13*
X196445000Y-252500000D03*
X196445000Y-255040000D03*
X204065000Y-255040000D03*
X204065000Y-252500000D03*
X204065000Y-249960000D03*
%TD*%
D10*
%TO.C,J14*%
X45200000Y-223470000D03*
X50200000Y-221000000D03*
%TD*%
D20*
%TO.C,D36*%
X144625000Y-161960557D03*
D13*
X144625000Y-169580557D03*
%TD*%
D21*
%TO.C,U3*%
X102350000Y-116200000D03*
D17*
X104050000Y-112500000D03*
X105750000Y-116200000D03*
X107450000Y-112500000D03*
X109150000Y-116200000D03*
%TD*%
D24*
%TO.C,REF\u002A\u002A*%
X83000000Y-220900000D03*
%TD*%
D20*
%TO.C,D35*%
X170375000Y-147727581D03*
D13*
X170375000Y-155347581D03*
%TD*%
D23*
%TO.C,K12*%
X209800000Y-193053999D03*
X207260000Y-193053999D03*
X199640000Y-193053999D03*
X199640000Y-198133999D03*
X207260000Y-198133999D03*
X209800000Y-198133999D03*
%TD*%
D15*
%TO.C,J21*%
X159600000Y-211100000D03*
%TD*%
D10*
%TO.C,J13*%
X45200000Y-234470000D03*
X50200000Y-232000000D03*
%TD*%
D12*
%TO.C,U19*%
X136695000Y-249710000D03*
D13*
X136695000Y-252250000D03*
X136695000Y-254790000D03*
X144315000Y-254790000D03*
X144315000Y-252250000D03*
X144315000Y-249710000D03*
%TD*%
D23*
%TO.C,K13*%
X235260000Y-207269813D03*
X232720000Y-207269813D03*
X225100000Y-207269813D03*
X225100000Y-212349813D03*
X232720000Y-212349813D03*
X235260000Y-212349813D03*
%TD*%
D10*
%TO.C,Q9*%
X217130000Y-181229489D03*
X217130000Y-178689489D03*
D11*
X217130000Y-176149489D03*
%TD*%
D20*
%TO.C,D40*%
X221630000Y-176129489D03*
D13*
X221630000Y-183749489D03*
%TD*%
D10*
%TO.C,J16*%
X45200000Y-201470000D03*
X50200000Y-199000000D03*
%TD*%
D23*
%TO.C,K2*%
X209760000Y-149681394D03*
X207220000Y-149681394D03*
X199600000Y-149681394D03*
X199600000Y-154761394D03*
X207220000Y-154761394D03*
X209760000Y-154761394D03*
%TD*%
D12*
%TO.C,U31*%
X109695000Y-209860000D03*
D13*
X109695000Y-212400000D03*
X109695000Y-214940000D03*
X109695000Y-217480000D03*
X109695000Y-220020000D03*
X109695000Y-222560000D03*
X109695000Y-225100000D03*
X109695000Y-227640000D03*
X117315000Y-227640000D03*
X117315000Y-225100000D03*
X117315000Y-222560000D03*
X117315000Y-220020000D03*
X117315000Y-217480000D03*
X117315000Y-214940000D03*
X117315000Y-212400000D03*
X117315000Y-209860000D03*
%TD*%
D15*
%TO.C,J18*%
X124400000Y-211100000D03*
%TD*%
D22*
%TO.C,HS2*%
X62950000Y-139000000D03*
X37550000Y-139000000D03*
%TD*%
D12*
%TO.C,U12*%
X188945000Y-238460000D03*
D13*
X188945000Y-241000000D03*
X188945000Y-243540000D03*
X196565000Y-243540000D03*
X196565000Y-241000000D03*
X196565000Y-238460000D03*
%TD*%
D25*
%TO.C,U33*%
X163860000Y-196805000D03*
D13*
X166400000Y-196805000D03*
X168940000Y-196805000D03*
X171480000Y-196805000D03*
X174020000Y-196805000D03*
X176560000Y-196805000D03*
X179100000Y-196805000D03*
X181640000Y-196805000D03*
X181640000Y-189185000D03*
X179100000Y-189185000D03*
X176560000Y-189185000D03*
X174020000Y-189185000D03*
X171480000Y-189185000D03*
X168940000Y-189185000D03*
X166400000Y-189185000D03*
X163860000Y-189185000D03*
%TD*%
D10*
%TO.C,Q4*%
X165875000Y-152907581D03*
X165875000Y-150367581D03*
D11*
X165875000Y-147827581D03*
%TD*%
D14*
%TO.C,REF\u002A\u002A*%
X264000000Y-274000000D03*
%TD*%
D20*
%TO.C,D33*%
X196400714Y-161827744D03*
D13*
X196400714Y-169447744D03*
%TD*%
D20*
%TO.C,D34*%
X144505000Y-147727581D03*
D13*
X144505000Y-155347581D03*
%TD*%
D23*
%TO.C,K10*%
X210000000Y-178297162D03*
X207460000Y-178297162D03*
X199840000Y-178297162D03*
X199840000Y-183377162D03*
X207460000Y-183377162D03*
X210000000Y-183377162D03*
%TD*%
%TO.C,K9*%
X235100000Y-177756139D03*
X232560000Y-177756139D03*
X224940000Y-177756139D03*
X224940000Y-182836139D03*
X232560000Y-182836139D03*
X235100000Y-182836139D03*
%TD*%
D20*
%TO.C,D37*%
X170375000Y-161960558D03*
D13*
X170375000Y-169580558D03*
%TD*%
D14*
%TO.C,REF\u002A\u002A*%
X38000000Y-82000000D03*
%TD*%
D20*
%TO.C,D46*%
X221630000Y-205643163D03*
D13*
X221630000Y-213263163D03*
%TD*%
D25*
%TO.C,U44*%
X80860000Y-201805000D03*
D13*
X83400000Y-201805000D03*
X85940000Y-201805000D03*
X88480000Y-201805000D03*
X91020000Y-201805000D03*
X93560000Y-201805000D03*
X96100000Y-201805000D03*
X98640000Y-201805000D03*
X98640000Y-194185000D03*
X96100000Y-194185000D03*
X93560000Y-194185000D03*
X91020000Y-194185000D03*
X88480000Y-194185000D03*
X85940000Y-194185000D03*
X83400000Y-194185000D03*
X80860000Y-194185000D03*
%TD*%
D12*
%TO.C,U6*%
X226565000Y-249960000D03*
D13*
X226565000Y-252500000D03*
X226565000Y-255040000D03*
X234185000Y-255040000D03*
X234185000Y-252500000D03*
X234185000Y-249960000D03*
%TD*%
D18*
%TO.C,REF\u002A\u002A*%
X71300000Y-178280000D03*
D19*
X71300000Y-173200000D03*
%TD*%
D16*
%TO.C,D3*%
X48000000Y-132950000D03*
D17*
X48000000Y-120250000D03*
%TD*%
D21*
%TO.C,U2*%
X79145807Y-147900000D03*
D17*
X80845807Y-144200000D03*
X82545807Y-147900000D03*
X84245807Y-144200000D03*
X85945807Y-147900000D03*
%TD*%
D18*
%TO.C,REF\u002A\u002A*%
X165500000Y-216180000D03*
D19*
X165500000Y-211100000D03*
%TD*%
D10*
%TO.C,Q12*%
X191894286Y-196527349D03*
X191894286Y-193987349D03*
D11*
X191894286Y-191447349D03*
%TD*%
D15*
%TO.C,J23*%
X96090000Y-211100000D03*
%TD*%
D20*
%TO.C,D43*%
X196394286Y-191427349D03*
D13*
X196394286Y-199047349D03*
%TD*%
D23*
%TO.C,K3*%
X158000000Y-149354231D03*
X155460000Y-149354231D03*
X147840000Y-149354231D03*
X147840000Y-154434231D03*
X155460000Y-154434231D03*
X158000000Y-154434231D03*
%TD*%
D12*
%TO.C,U18*%
X144195000Y-238460000D03*
D13*
X144195000Y-241000000D03*
X144195000Y-243540000D03*
X151815000Y-243540000D03*
X151815000Y-241000000D03*
X151815000Y-238460000D03*
%TD*%
D20*
%TO.C,D41*%
X196370000Y-176670512D03*
D13*
X196370000Y-184290512D03*
%TD*%
D10*
%TO.C,Q7*%
X139875000Y-182007791D03*
X139875000Y-179467791D03*
D11*
X139875000Y-176927791D03*
%TD*%
D25*
%TO.C,U34*%
X108880000Y-201805000D03*
D13*
X111420000Y-201805000D03*
X113960000Y-201805000D03*
X116500000Y-201805000D03*
X119040000Y-201805000D03*
X121580000Y-201805000D03*
X124120000Y-201805000D03*
X126660000Y-201805000D03*
X126660000Y-194185000D03*
X124120000Y-194185000D03*
X121580000Y-194185000D03*
X119040000Y-194185000D03*
X116500000Y-194185000D03*
X113960000Y-194185000D03*
X111420000Y-194185000D03*
X108880000Y-194185000D03*
%TD*%
D20*
%TO.C,D38*%
X144375000Y-176907791D03*
D13*
X144375000Y-184527791D03*
%TD*%
D12*
%TO.C,U21*%
X121695000Y-249710000D03*
D13*
X121695000Y-252250000D03*
X121695000Y-254790000D03*
X129315000Y-254790000D03*
X129315000Y-252250000D03*
X129315000Y-249710000D03*
%TD*%
D23*
%TO.C,K11*%
X235060000Y-192512976D03*
X232520000Y-192512976D03*
X224900000Y-192512976D03*
X224900000Y-197592976D03*
X232520000Y-197592976D03*
X235060000Y-197592976D03*
%TD*%
%TO.C,K1*%
X210040000Y-163454394D03*
X207500000Y-163454394D03*
X199880000Y-163454394D03*
X199880000Y-168534394D03*
X207500000Y-168534394D03*
X210040000Y-168534394D03*
%TD*%
D10*
%TO.C,Q8*%
X165625000Y-182047790D03*
X165625000Y-179507790D03*
D11*
X165625000Y-176967790D03*
%TD*%
D12*
%TO.C,U14*%
X174195000Y-238460000D03*
D13*
X174195000Y-241000000D03*
X174195000Y-243540000D03*
X181815000Y-243540000D03*
X181815000Y-241000000D03*
X181815000Y-238460000D03*
%TD*%
D12*
%TO.C,U16*%
X159195000Y-238460000D03*
D13*
X159195000Y-241000000D03*
X159195000Y-243540000D03*
X166815000Y-243540000D03*
X166815000Y-241000000D03*
X166815000Y-238460000D03*
%TD*%
D26*
%TO.C,D6*%
X103850000Y-101750000D03*
D17*
X91150000Y-101750000D03*
%TD*%
D10*
%TO.C,J3*%
X187750000Y-260500000D03*
X190250000Y-265500000D03*
X192750000Y-260500000D03*
X195250000Y-265500000D03*
X197750000Y-260500000D03*
X200250000Y-265500000D03*
X202750000Y-260500000D03*
X205250000Y-265500000D03*
X207750000Y-260500000D03*
X210250000Y-265500000D03*
X212750000Y-260500000D03*
X215250000Y-265500000D03*
X217750000Y-260500000D03*
X220250000Y-265500000D03*
X222750000Y-260500000D03*
X225250000Y-265500000D03*
X227750000Y-260500000D03*
X230250000Y-265500000D03*
X232750000Y-260500000D03*
X235250000Y-265500000D03*
X237750000Y-260500000D03*
X240250000Y-265500000D03*
X242750000Y-260500000D03*
X245250000Y-265500000D03*
%TD*%
%TO.C,J11*%
X45200000Y-256470000D03*
X50200000Y-254000000D03*
%TD*%
D12*
%TO.C,U17*%
X151695000Y-249710000D03*
D13*
X151695000Y-252250000D03*
X151695000Y-254790000D03*
X159315000Y-254790000D03*
X159315000Y-252250000D03*
X159315000Y-249710000D03*
%TD*%
D10*
%TO.C,Q16*%
X191752625Y-212034186D03*
X191752625Y-209494186D03*
D11*
X191752625Y-206954186D03*
%TD*%
D12*
%TO.C,U22*%
X140162500Y-209970000D03*
D13*
X140162500Y-212510000D03*
X140162500Y-215050000D03*
X140162500Y-217590000D03*
X140162500Y-220130000D03*
X140162500Y-222670000D03*
X140162500Y-225210000D03*
X140162500Y-227750000D03*
X147782500Y-227750000D03*
X147782500Y-225210000D03*
X147782500Y-222670000D03*
X147782500Y-220130000D03*
X147782500Y-217590000D03*
X147782500Y-215050000D03*
X147782500Y-212510000D03*
X147782500Y-209970000D03*
%TD*%
D27*
%TO.C,J2*%
X98250000Y-89250000D03*
D28*
X93250000Y-89250000D03*
%TD*%
D21*
%TO.C,J17*%
X131283750Y-217800000D03*
D17*
X126283750Y-217800000D03*
%TD*%
D23*
%TO.C,K14*%
X209760000Y-208560836D03*
X207220000Y-208560836D03*
X199600000Y-208560836D03*
X199600000Y-213640836D03*
X207220000Y-213640836D03*
X209760000Y-213640836D03*
%TD*%
D20*
%TO.C,D47*%
X196252625Y-206934186D03*
D13*
X196252625Y-214554186D03*
%TD*%
D20*
%TO.C,D32*%
X196316786Y-148054744D03*
D13*
X196316786Y-155674744D03*
%TD*%
D23*
%TO.C,K5*%
X158229700Y-163587207D03*
X155689700Y-163587207D03*
X148069700Y-163587207D03*
X148069700Y-168667207D03*
X155689700Y-168667207D03*
X158229700Y-168667207D03*
%TD*%
D20*
%TO.C,D42*%
X221630000Y-190886326D03*
D13*
X221630000Y-198506326D03*
%TD*%
D12*
%TO.C,U20*%
X129195000Y-238460000D03*
D13*
X129195000Y-241000000D03*
X129195000Y-243540000D03*
X136815000Y-243540000D03*
X136815000Y-241000000D03*
X136815000Y-238460000D03*
%TD*%
D15*
%TO.C,J24*%
X104410000Y-211100000D03*
%TD*%
D20*
%TO.C,D39*%
X170125000Y-176907790D03*
D13*
X170125000Y-184527790D03*
%TD*%
D12*
%TO.C,U29*%
X64445000Y-238460000D03*
D13*
X64445000Y-241000000D03*
X64445000Y-243540000D03*
X72065000Y-243540000D03*
X72065000Y-241000000D03*
X72065000Y-238460000D03*
%TD*%
D10*
%TO.C,Q6*%
X165875000Y-167100558D03*
X165875000Y-164560558D03*
D11*
X165875000Y-162020558D03*
%TD*%
D12*
%TO.C,U15*%
X166695000Y-249960000D03*
D13*
X166695000Y-252500000D03*
X166695000Y-255040000D03*
X174315000Y-255040000D03*
X174315000Y-252500000D03*
X174315000Y-249960000D03*
%TD*%
D18*
%TO.C,REF\u002A\u002A*%
X66200000Y-178280000D03*
D19*
X66200000Y-173200000D03*
%TD*%
D18*
%TO.C,REF\u002A\u002A*%
X76500000Y-178300000D03*
D19*
X76500000Y-173220000D03*
%TD*%
D12*
%TO.C,U23*%
X109445000Y-238460000D03*
D13*
X109445000Y-241000000D03*
X109445000Y-243540000D03*
X117065000Y-243540000D03*
X117065000Y-241000000D03*
X117065000Y-238460000D03*
%TD*%
D10*
%TO.C,Q1*%
X191816786Y-153194744D03*
X191816786Y-150654744D03*
D11*
X191816786Y-148114744D03*
%TD*%
D12*
%TO.C,U7*%
X218945000Y-238460000D03*
D13*
X218945000Y-241000000D03*
X218945000Y-243540000D03*
X226565000Y-243540000D03*
X226565000Y-241000000D03*
X226565000Y-238460000D03*
%TD*%
D10*
%TO.C,J10*%
X45200000Y-167250000D03*
X50200000Y-169750000D03*
X45200000Y-172250000D03*
%TD*%
%TO.C,J4*%
X123000000Y-260500000D03*
X125500000Y-265500000D03*
X128000000Y-260500000D03*
X130500000Y-265500000D03*
X133000000Y-260500000D03*
X135500000Y-265500000D03*
X138000000Y-260500000D03*
X140500000Y-265500000D03*
X143000000Y-260500000D03*
X145500000Y-265500000D03*
X148000000Y-260500000D03*
X150500000Y-265500000D03*
X153000000Y-260500000D03*
X155500000Y-265500000D03*
X158000000Y-260500000D03*
X160500000Y-265500000D03*
X163000000Y-260500000D03*
X165500000Y-265500000D03*
X168000000Y-260500000D03*
X170500000Y-265500000D03*
X173000000Y-260500000D03*
X175500000Y-265500000D03*
X178000000Y-260500000D03*
X180500000Y-265500000D03*
%TD*%
D12*
%TO.C,U30*%
X56945000Y-249710000D03*
D13*
X56945000Y-252250000D03*
X56945000Y-254790000D03*
X64565000Y-254790000D03*
X64565000Y-252250000D03*
X64565000Y-249710000D03*
%TD*%
D10*
%TO.C,Q3*%
X140005000Y-152907581D03*
X140005000Y-150367581D03*
D11*
X140005000Y-147827581D03*
%TD*%
D12*
%TO.C,U27*%
X79445000Y-238460000D03*
D13*
X79445000Y-241000000D03*
X79445000Y-243540000D03*
X87065000Y-243540000D03*
X87065000Y-241000000D03*
X87065000Y-238460000D03*
%TD*%
D20*
%TO.C,D45*%
X196370000Y-220546837D03*
D13*
X196370000Y-228166837D03*
%TD*%
D23*
%TO.C,K6*%
X183860000Y-163587208D03*
X181320000Y-163587208D03*
X173700000Y-163587208D03*
X173700000Y-168667208D03*
X181320000Y-168667208D03*
X183860000Y-168667208D03*
%TD*%
D10*
%TO.C,J9*%
X45200000Y-186500000D03*
X50200000Y-189000000D03*
X45200000Y-191500000D03*
%TD*%
D12*
%TO.C,U24*%
X101945000Y-249710000D03*
D13*
X101945000Y-252250000D03*
X101945000Y-254790000D03*
X109565000Y-254790000D03*
X109565000Y-252250000D03*
X109565000Y-249710000D03*
%TD*%
D12*
%TO.C,U10*%
X203945000Y-238460000D03*
D13*
X203945000Y-241000000D03*
X203945000Y-243540000D03*
X211565000Y-243540000D03*
X211565000Y-241000000D03*
X211565000Y-238460000D03*
%TD*%
D22*
%TO.C,HS3*%
X95245807Y-138950000D03*
X69845807Y-138950000D03*
%TD*%
D19*
%TO.C,J1*%
X69800000Y-93100000D03*
X57300000Y-93100000D03*
X69800000Y-96900000D03*
X57300000Y-96900000D03*
X69800000Y-108100000D03*
X57300000Y-108100000D03*
X69800000Y-111900000D03*
X57300000Y-111900000D03*
%TD*%
D12*
%TO.C,U26*%
X86945000Y-249710000D03*
D13*
X86945000Y-252250000D03*
X86945000Y-254790000D03*
X94565000Y-254790000D03*
X94565000Y-252250000D03*
X94565000Y-249710000D03*
%TD*%
D19*
%TO.C,J8*%
X233000000Y-165400000D03*
X245500000Y-165400000D03*
X233000000Y-161600000D03*
X245500000Y-161600000D03*
X233000000Y-150400000D03*
X245500000Y-150400000D03*
X233000000Y-146600000D03*
X245500000Y-146600000D03*
%TD*%
D25*
%TO.C,U32*%
X136900000Y-197065000D03*
D13*
X139440000Y-197065000D03*
X141980000Y-197065000D03*
X144520000Y-197065000D03*
X147060000Y-197065000D03*
X149600000Y-197065000D03*
X152140000Y-197065000D03*
X154680000Y-197065000D03*
X154680000Y-189445000D03*
X152140000Y-189445000D03*
X149600000Y-189445000D03*
X147060000Y-189445000D03*
X144520000Y-189445000D03*
X141980000Y-189445000D03*
X139440000Y-189445000D03*
X136900000Y-189445000D03*
%TD*%
D12*
%TO.C,U13*%
X181445000Y-249960000D03*
D13*
X181445000Y-252500000D03*
X181445000Y-255040000D03*
X189065000Y-255040000D03*
X189065000Y-252500000D03*
X189065000Y-249960000D03*
%TD*%
D29*
%TO.C,J25*%
X147745000Y-127000000D03*
D30*
X145205000Y-127000000D03*
X142665000Y-127000000D03*
X140125000Y-127000000D03*
X137585000Y-127000000D03*
X135045000Y-127000000D03*
%TD*%
D21*
%TO.C,U1*%
X46850000Y-147950000D03*
D17*
X48550000Y-144250000D03*
X50250000Y-147950000D03*
X51950000Y-144250000D03*
X53650000Y-147950000D03*
%TD*%
D23*
%TO.C,K16*%
X209900000Y-222173487D03*
X207360000Y-222173487D03*
X199740000Y-222173487D03*
X199740000Y-227253487D03*
X207360000Y-227253487D03*
X209900000Y-227253487D03*
%TD*%
D14*
%TO.C,REF\u002A\u002A*%
X264000000Y-82000000D03*
%TD*%
D10*
%TO.C,Q10*%
X191870000Y-181770512D03*
X191870000Y-179230512D03*
D11*
X191870000Y-176690512D03*
%TD*%
D23*
%TO.C,K15*%
X235260000Y-222026650D03*
X232720000Y-222026650D03*
X225100000Y-222026650D03*
X225100000Y-227106650D03*
X232720000Y-227106650D03*
X235260000Y-227106650D03*
%TD*%
D10*
%TO.C,J12*%
X45200000Y-245470000D03*
X50200000Y-243000000D03*
%TD*%
D11*
%TO.C,J7*%
X256000000Y-257750000D03*
D10*
X256000000Y-255250000D03*
X256000000Y-252750000D03*
X256000000Y-250250000D03*
X256000000Y-247750000D03*
X256000000Y-245250000D03*
X256000000Y-242750000D03*
X256000000Y-240250000D03*
X256000000Y-237750000D03*
X256000000Y-235250000D03*
X256000000Y-232750000D03*
X256000000Y-230250000D03*
X256000000Y-227750000D03*
X256000000Y-225250000D03*
X256000000Y-222750000D03*
X256000000Y-220250000D03*
%TD*%
D23*
%TO.C,K8*%
X183800000Y-178534440D03*
X181260000Y-178534440D03*
X173640000Y-178534440D03*
X173640000Y-183614440D03*
X181260000Y-183614440D03*
X183800000Y-183614440D03*
%TD*%
%TO.C,K4*%
X183840000Y-149354231D03*
X181300000Y-149354231D03*
X173680000Y-149354231D03*
X173680000Y-154434231D03*
X181300000Y-154434231D03*
X183840000Y-154434231D03*
%TD*%
D31*
%TO.C,SW5*%
X137800000Y-84500000D03*
X139800000Y-84500000D03*
X141800000Y-84500000D03*
X137800000Y-89500000D03*
X139800000Y-89500000D03*
X141800000Y-89500000D03*
%TD*%
%TO.C,SW2*%
X137800000Y-115800000D03*
X139800000Y-115800000D03*
X141800000Y-115800000D03*
X137800000Y-120800000D03*
X139800000Y-120800000D03*
X141800000Y-120800000D03*
%TD*%
%TO.C,SW3*%
X137800000Y-105200000D03*
X139800000Y-105200000D03*
X141800000Y-105200000D03*
X137800000Y-110200000D03*
X139800000Y-110200000D03*
X141800000Y-110200000D03*
%TD*%
%TO.C,SW4*%
X137800000Y-94800000D03*
X139800000Y-94800000D03*
X141800000Y-94800000D03*
X137800000Y-99800000D03*
X139800000Y-99800000D03*
X141800000Y-99800000D03*
%TD*%
D32*
%TO.C,SW1*%
X147200000Y-113300000D03*
X159800000Y-113300000D03*
D17*
X151000000Y-105800000D03*
X156000000Y-105800000D03*
X153500000Y-105800000D03*
X151000000Y-120300000D03*
X156000000Y-120300000D03*
%TD*%
D33*
%TO.C,RP*%
X184250000Y-136000000D03*
X242250000Y-136000000D03*
X184250000Y-87000000D03*
X242250000Y-87000000D03*
%TD*%
D29*
%TO.C,U4*%
X167460000Y-134620000D03*
D30*
X170000000Y-134620000D03*
X167460000Y-132080000D03*
X170000000Y-132080000D03*
X167460000Y-129540000D03*
X170000000Y-129540000D03*
X167460000Y-127000000D03*
X170000000Y-127000000D03*
X167460000Y-124460000D03*
X170000000Y-124460000D03*
X167460000Y-121920000D03*
X170000000Y-121920000D03*
X167460000Y-119380000D03*
X170000000Y-119380000D03*
X167460000Y-116840000D03*
X170000000Y-116840000D03*
X167460000Y-114300000D03*
X170000000Y-114300000D03*
X167460000Y-111760000D03*
X170000000Y-111760000D03*
X167460000Y-109220000D03*
X170000000Y-109220000D03*
X167460000Y-106680000D03*
X170000000Y-106680000D03*
X167460000Y-104140000D03*
X170000000Y-104140000D03*
X167460000Y-101600000D03*
X170000000Y-101600000D03*
X167460000Y-99060000D03*
X170000000Y-99060000D03*
X167460000Y-96520000D03*
X170000000Y-96520000D03*
X167460000Y-93980000D03*
X170000000Y-93980000D03*
X167460000Y-91440000D03*
X170000000Y-91440000D03*
X167460000Y-88900000D03*
X170000000Y-88900000D03*
X167460000Y-86360000D03*
X170000000Y-86360000D03*
%TD*%
D34*
%TO.C,DP*%
X54900000Y-179500000D03*
X130900000Y-179500000D03*
X54900000Y-81500000D03*
X130900000Y-81500000D03*
%TD*%
M02*
